<svg width="430" height="250" viewBox="0 0 430 250" fill="none" xmlns="http://www.w3.org/2000/svg">
  <g clip-path="url(#clip0_4092_171171)">
    <path d="M0.333374 0H429.667V250H0.333374V0Z" fill="#F8F8F8"/>
    <g filter="url(#filter0_d_4092_171171)">
      <rect x="69.9999" y="32" width="289" height="242" rx="4" fill="white"/>
      <rect x="82.4999" y="44.5" width="264" height="47" rx="3.5" fill="#FBFBFB"/>
      <rect x="82.4999" y="44.5" width="264" height="47" rx="3.5" stroke="#E6E6E6"/>
      <path d="M95.0229 56.322H97.5969C98.0735 56.322 98.5062 56.4027 98.8949 56.564C99.2835 56.7253 99.6135 56.9673 99.8849 57.29C100.164 57.6053 100.376 58.005 100.523 58.489C100.67 58.9657 100.743 59.523 100.743 60.161C100.743 60.799 100.67 61.36 100.523 61.844C100.376 62.3207 100.164 62.7203 99.8849 63.043C99.6135 63.3583 99.2835 63.5967 98.8949 63.758C98.5062 63.9193 98.0735 64 97.5969 64H95.0229V56.322ZM97.5969 63.186C97.9122 63.186 98.2019 63.1347 98.4659 63.032C98.7299 62.922 98.9572 62.7643 99.1479 62.559C99.3385 62.3537 99.4852 62.1043 99.5879 61.811C99.6979 61.5103 99.7529 61.1693 99.7529 60.788V59.534C99.7529 59.1527 99.6979 58.8153 99.5879 58.522C99.4852 58.2213 99.3385 57.9683 99.1479 57.763C98.9572 57.5577 98.7299 57.4037 98.4659 57.301C98.2019 57.191 97.9122 57.136 97.5969 57.136H95.9469V63.186H97.5969ZM104.449 64.132C104.06 64.132 103.708 64.0623 103.393 63.923C103.085 63.7837 102.817 63.5857 102.59 63.329C102.37 63.065 102.197 62.7533 102.073 62.394C101.955 62.0273 101.897 61.6167 101.897 61.162C101.897 60.7147 101.955 60.3077 102.073 59.941C102.197 59.5743 102.37 59.2627 102.59 59.006C102.817 58.742 103.085 58.5403 103.393 58.401C103.708 58.2617 104.06 58.192 104.449 58.192C104.83 58.192 105.171 58.2617 105.472 58.401C105.772 58.5403 106.029 58.7347 106.242 58.984C106.454 59.226 106.616 59.5157 106.726 59.853C106.843 60.1903 106.902 60.5607 106.902 60.964V61.382H102.821V61.646C102.821 61.888 102.857 62.1153 102.931 62.328C103.011 62.5333 103.121 62.713 103.261 62.867C103.407 63.021 103.583 63.142 103.789 63.23C104.001 63.318 104.24 63.362 104.504 63.362C104.863 63.362 105.175 63.2777 105.439 63.109C105.71 62.9403 105.919 62.6983 106.066 62.383L106.693 62.834C106.509 63.2227 106.223 63.538 105.835 63.78C105.446 64.0147 104.984 64.132 104.449 64.132ZM104.449 58.929C104.207 58.929 103.987 58.973 103.789 59.061C103.591 59.1417 103.418 59.259 103.272 59.413C103.132 59.567 103.022 59.7503 102.942 59.963C102.861 60.1683 102.821 60.3957 102.821 60.645V60.722H105.956V60.601C105.956 60.095 105.816 59.6917 105.538 59.391C105.266 59.083 104.903 58.929 104.449 58.929ZM110.057 64.132C109.529 64.132 109.085 64.033 108.726 63.835C108.374 63.6297 108.07 63.3583 107.813 63.021L108.44 62.515C108.66 62.7937 108.906 63.01 109.177 63.164C109.448 63.3107 109.764 63.384 110.123 63.384C110.497 63.384 110.787 63.3033 110.992 63.142C111.205 62.9807 111.311 62.7533 111.311 62.46C111.311 62.24 111.238 62.053 111.091 61.899C110.952 61.7377 110.695 61.6277 110.321 61.569L109.87 61.503C109.606 61.4663 109.364 61.4113 109.144 61.338C108.924 61.2573 108.73 61.1547 108.561 61.03C108.4 60.898 108.271 60.7367 108.176 60.546C108.088 60.3553 108.044 60.128 108.044 59.864C108.044 59.5853 108.095 59.3433 108.198 59.138C108.301 58.9253 108.44 58.7493 108.616 58.61C108.799 58.4707 109.016 58.368 109.265 58.302C109.514 58.2287 109.782 58.192 110.068 58.192C110.53 58.192 110.915 58.2727 111.223 58.434C111.538 58.5953 111.813 58.819 112.048 59.105L111.465 59.633C111.34 59.457 111.157 59.2993 110.915 59.16C110.673 59.0133 110.369 58.94 110.002 58.94C109.635 58.94 109.357 59.0207 109.166 59.182C108.983 59.336 108.891 59.5487 108.891 59.82C108.891 60.0987 108.983 60.3003 109.166 60.425C109.357 60.5497 109.628 60.6413 109.98 60.7L110.42 60.766C111.051 60.8613 111.498 61.0447 111.762 61.316C112.026 61.58 112.158 61.9283 112.158 62.361C112.158 62.911 111.971 63.3437 111.597 63.659C111.223 63.9743 110.71 64.132 110.057 64.132ZM115.824 64.132C115.428 64.132 115.073 64.0623 114.757 63.923C114.442 63.7837 114.174 63.5857 113.954 63.329C113.742 63.0723 113.577 62.7607 113.459 62.394C113.349 62.0273 113.294 61.6167 113.294 61.162C113.294 60.7073 113.349 60.2967 113.459 59.93C113.577 59.5633 113.742 59.2517 113.954 58.995C114.174 58.7383 114.442 58.5403 114.757 58.401C115.073 58.2617 115.428 58.192 115.824 58.192C116.389 58.192 116.84 58.3167 117.177 58.566C117.522 58.808 117.779 59.127 117.947 59.523L117.21 59.897C117.108 59.6037 116.939 59.3763 116.704 59.215C116.47 59.0537 116.176 58.973 115.824 58.973C115.56 58.973 115.329 59.017 115.131 59.105C114.933 59.1857 114.768 59.303 114.636 59.457C114.504 59.6037 114.405 59.7833 114.339 59.996C114.273 60.2013 114.24 60.4287 114.24 60.678V61.646C114.24 62.1447 114.372 62.5553 114.636 62.878C114.908 63.1933 115.304 63.351 115.824 63.351C116.536 63.351 117.049 63.021 117.364 62.361L118.002 62.79C117.819 63.2007 117.544 63.527 117.177 63.769C116.818 64.011 116.367 64.132 115.824 64.132ZM119.244 64V58.324H120.124V59.369H120.179C120.282 59.0977 120.465 58.8557 120.729 58.643C120.993 58.4303 121.356 58.324 121.818 58.324H122.159V59.204H121.642C121.166 59.204 120.792 59.2957 120.52 59.479C120.256 59.655 120.124 59.8787 120.124 60.15V64H119.244ZM123.724 56.993C123.533 56.993 123.394 56.949 123.306 56.861C123.225 56.7657 123.185 56.6447 123.185 56.498V56.355C123.185 56.2083 123.225 56.091 123.306 56.003C123.394 55.9077 123.533 55.86 123.724 55.86C123.914 55.86 124.05 55.9077 124.131 56.003C124.219 56.091 124.263 56.2083 124.263 56.355V56.498C124.263 56.6447 124.219 56.7657 124.131 56.861C124.05 56.949 123.914 56.993 123.724 56.993ZM123.284 58.324H124.164V64H123.284V58.324ZM126.034 55.86H126.914V59.248H126.958C127.104 58.8887 127.317 58.6247 127.596 58.456C127.882 58.28 128.223 58.192 128.619 58.192C128.971 58.192 129.29 58.2617 129.576 58.401C129.862 58.5403 130.104 58.7383 130.302 58.995C130.507 59.2517 130.661 59.5633 130.764 59.93C130.874 60.2967 130.929 60.7073 130.929 61.162C130.929 61.6167 130.874 62.0273 130.764 62.394C130.661 62.7607 130.507 63.0723 130.302 63.329C130.104 63.5857 129.862 63.7837 129.576 63.923C129.29 64.0623 128.971 64.132 128.619 64.132C127.849 64.132 127.295 63.78 126.958 63.076H126.914V64H126.034V55.86ZM128.377 63.34C128.875 63.34 129.268 63.186 129.554 62.878C129.84 62.5627 129.983 62.152 129.983 61.646V60.678C129.983 60.172 129.84 59.765 129.554 59.457C129.268 59.1417 128.875 58.984 128.377 58.984C128.179 58.984 127.988 59.0133 127.805 59.072C127.629 59.1233 127.475 59.1967 127.343 59.292C127.211 59.3873 127.104 59.5047 127.024 59.644C126.95 59.776 126.914 59.919 126.914 60.073V62.185C126.914 62.3683 126.95 62.5333 127.024 62.68C127.104 62.8193 127.211 62.9403 127.343 63.043C127.475 63.1383 127.629 63.2117 127.805 63.263C127.988 63.3143 128.179 63.34 128.377 63.34ZM134.548 64.132C134.16 64.132 133.808 64.0623 133.492 63.923C133.184 63.7837 132.917 63.5857 132.689 63.329C132.469 63.065 132.297 62.7533 132.172 62.394C132.055 62.0273 131.996 61.6167 131.996 61.162C131.996 60.7147 132.055 60.3077 132.172 59.941C132.297 59.5743 132.469 59.2627 132.689 59.006C132.917 58.742 133.184 58.5403 133.492 58.401C133.808 58.2617 134.16 58.192 134.548 58.192C134.93 58.192 135.271 58.2617 135.571 58.401C135.872 58.5403 136.129 58.7347 136.341 58.984C136.554 59.226 136.715 59.5157 136.825 59.853C136.943 60.1903 137.001 60.5607 137.001 60.964V61.382H132.92V61.646C132.92 61.888 132.957 62.1153 133.03 62.328C133.111 62.5333 133.221 62.713 133.36 62.867C133.507 63.021 133.683 63.142 133.888 63.23C134.101 63.318 134.339 63.362 134.603 63.362C134.963 63.362 135.274 63.2777 135.538 63.109C135.81 62.9403 136.019 62.6983 136.165 62.383L136.792 62.834C136.609 63.2227 136.323 63.538 135.934 63.78C135.546 64.0147 135.084 64.132 134.548 64.132ZM134.548 58.929C134.306 58.929 134.086 58.973 133.888 59.061C133.69 59.1417 133.518 59.259 133.371 59.413C133.232 59.567 133.122 59.7503 133.041 59.963C132.961 60.1683 132.92 60.3957 132.92 60.645V60.722H136.055V60.601C136.055 60.095 135.916 59.6917 135.637 59.391C135.366 59.083 135.003 58.929 134.548 58.929ZM144.549 58.324H145.418L142.877 65.32C142.811 65.4887 142.745 65.628 142.679 65.738C142.613 65.8553 142.532 65.947 142.437 66.013C142.342 66.079 142.221 66.1267 142.074 66.156C141.935 66.1853 141.762 66.2 141.557 66.2H141.106V65.43H141.997L142.426 64.22L140.303 58.324H141.183L142.547 62.185L142.811 63.109H142.866L143.174 62.185L144.549 58.324ZM148.632 64.132C148.25 64.132 147.902 64.0623 147.587 63.923C147.271 63.7837 147 63.5857 146.773 63.329C146.553 63.065 146.38 62.7533 146.256 62.394C146.131 62.0273 146.069 61.6167 146.069 61.162C146.069 60.7147 146.131 60.3077 146.256 59.941C146.38 59.5743 146.553 59.2627 146.773 59.006C147 58.742 147.271 58.5403 147.587 58.401C147.902 58.2617 148.25 58.192 148.632 58.192C149.013 58.192 149.358 58.2617 149.666 58.401C149.981 58.5403 150.252 58.742 150.48 59.006C150.707 59.2627 150.883 59.5743 151.008 59.941C151.132 60.3077 151.195 60.7147 151.195 61.162C151.195 61.6167 151.132 62.0273 151.008 62.394C150.883 62.7533 150.707 63.065 150.48 63.329C150.252 63.5857 149.981 63.7837 149.666 63.923C149.358 64.0623 149.013 64.132 148.632 64.132ZM148.632 63.351C149.108 63.351 149.497 63.2043 149.798 62.911C150.098 62.6177 150.249 62.1703 150.249 61.569V60.755C150.249 60.1537 150.098 59.7063 149.798 59.413C149.497 59.1197 149.108 58.973 148.632 58.973C148.155 58.973 147.766 59.1197 147.466 59.413C147.165 59.7063 147.015 60.1537 147.015 60.755V61.569C147.015 62.1703 147.165 62.6177 147.466 62.911C147.766 63.2043 148.155 63.351 148.632 63.351ZM156.14 63.076H156.096C156.037 63.208 155.964 63.34 155.876 63.472C155.795 63.5967 155.693 63.7103 155.568 63.813C155.443 63.9083 155.293 63.9853 155.117 64.044C154.941 64.1027 154.736 64.132 154.501 64.132C153.914 64.132 153.449 63.945 153.104 63.571C152.759 63.1897 152.587 62.6543 152.587 61.965V58.324H153.467V61.811C153.467 62.8303 153.9 63.34 154.765 63.34C154.941 63.34 155.11 63.318 155.271 63.274C155.44 63.23 155.586 63.164 155.711 63.076C155.843 62.988 155.946 62.878 156.019 62.746C156.1 62.6067 156.14 62.4417 156.14 62.251V58.324H157.02V64H156.14V63.076ZM158.894 64V58.324H159.774V59.369H159.829C159.932 59.0977 160.115 58.8557 160.379 58.643C160.643 58.4303 161.006 58.324 161.468 58.324H161.809V59.204H161.292C160.815 59.204 160.441 59.2957 160.17 59.479C159.906 59.655 159.774 59.8787 159.774 60.15V64H158.894ZM166.787 64C166.479 64 166.244 63.9157 166.083 63.747C165.929 63.571 165.852 63.3437 165.852 63.065V59.094H164.917V58.324H165.445C165.635 58.324 165.764 58.2873 165.83 58.214C165.903 58.1333 165.94 57.9977 165.94 57.807V56.751H166.732V58.324H167.975V59.094H166.732V63.23H167.887V64H166.787ZM173.514 64C173.184 64 172.946 63.912 172.799 63.736C172.66 63.56 172.572 63.34 172.535 63.076H172.48C172.355 63.428 172.15 63.692 171.864 63.868C171.578 64.044 171.237 64.132 170.841 64.132C170.24 64.132 169.77 63.978 169.433 63.67C169.103 63.362 168.938 62.944 168.938 62.416C168.938 61.8807 169.132 61.47 169.521 61.184C169.917 60.898 170.529 60.755 171.358 60.755H172.48V60.194C172.48 59.7907 172.37 59.4827 172.15 59.27C171.93 59.0573 171.593 58.951 171.138 58.951C170.793 58.951 170.504 59.028 170.269 59.182C170.042 59.336 169.851 59.5413 169.697 59.798L169.169 59.303C169.323 58.995 169.569 58.7347 169.906 58.522C170.243 58.302 170.669 58.192 171.182 58.192C171.871 58.192 172.407 58.3607 172.788 58.698C173.169 59.0353 173.36 59.5047 173.36 60.106V63.23H174.009V64H173.514ZM170.984 63.384C171.204 63.384 171.406 63.3583 171.589 63.307C171.772 63.2557 171.93 63.1823 172.062 63.087C172.194 62.9917 172.297 62.8817 172.37 62.757C172.443 62.6323 172.48 62.4967 172.48 62.35V61.415H171.314C170.808 61.415 170.438 61.4883 170.203 61.635C169.976 61.7817 169.862 61.9943 169.862 62.273V62.504C169.862 62.7827 169.961 62.999 170.159 63.153C170.364 63.307 170.639 63.384 170.984 63.384ZM176.97 64.132C176.442 64.132 175.998 64.033 175.639 63.835C175.287 63.6297 174.983 63.3583 174.726 63.021L175.353 62.515C175.573 62.7937 175.819 63.01 176.09 63.164C176.361 63.3107 176.677 63.384 177.036 63.384C177.41 63.384 177.7 63.3033 177.905 63.142C178.118 62.9807 178.224 62.7533 178.224 62.46C178.224 62.24 178.151 62.053 178.004 61.899C177.865 61.7377 177.608 61.6277 177.234 61.569L176.783 61.503C176.519 61.4663 176.277 61.4113 176.057 61.338C175.837 61.2573 175.643 61.1547 175.474 61.03C175.313 60.898 175.184 60.7367 175.089 60.546C175.001 60.3553 174.957 60.128 174.957 59.864C174.957 59.5853 175.008 59.3433 175.111 59.138C175.214 58.9253 175.353 58.7493 175.529 58.61C175.712 58.4707 175.929 58.368 176.178 58.302C176.427 58.2287 176.695 58.192 176.981 58.192C177.443 58.192 177.828 58.2727 178.136 58.434C178.451 58.5953 178.726 58.819 178.961 59.105L178.378 59.633C178.253 59.457 178.07 59.2993 177.828 59.16C177.586 59.0133 177.282 58.94 176.915 58.94C176.548 58.94 176.27 59.0207 176.079 59.182C175.896 59.336 175.804 59.5487 175.804 59.82C175.804 60.0987 175.896 60.3003 176.079 60.425C176.27 60.5497 176.541 60.6413 176.893 60.7L177.333 60.766C177.964 60.8613 178.411 61.0447 178.675 61.316C178.939 61.58 179.071 61.9283 179.071 62.361C179.071 62.911 178.884 63.3437 178.51 63.659C178.136 63.9743 177.623 64.132 176.97 64.132ZM180.625 55.86H181.505V61.019H181.549L182.418 60.051L184.024 58.324H185.091L182.99 60.568L185.3 64H184.233L182.352 61.107L181.505 61.976V64H180.625V55.86ZM186.987 64.132C186.752 64.132 186.58 64.0733 186.47 63.956C186.367 63.8387 186.316 63.6847 186.316 63.494V63.351C186.316 63.1603 186.367 63.0063 186.47 62.889C186.58 62.7717 186.752 62.713 186.987 62.713C187.222 62.713 187.39 62.7717 187.493 62.889C187.603 63.0063 187.658 63.1603 187.658 63.351V63.494C187.658 63.6847 187.603 63.8387 187.493 63.956C187.39 64.0733 187.222 64.132 186.987 64.132ZM189.984 64.132C189.749 64.132 189.577 64.0733 189.467 63.956C189.364 63.8387 189.313 63.6847 189.313 63.494V63.351C189.313 63.1603 189.364 63.0063 189.467 62.889C189.577 62.7717 189.749 62.713 189.984 62.713C190.219 62.713 190.387 62.7717 190.49 62.889C190.6 63.0063 190.655 63.1603 190.655 63.351V63.494C190.655 63.6847 190.6 63.8387 190.49 63.956C190.387 64.0733 190.219 64.132 189.984 64.132ZM192.981 64.132C192.747 64.132 192.574 64.0733 192.464 63.956C192.362 63.8387 192.31 63.6847 192.31 63.494V63.351C192.31 63.1603 192.362 63.0063 192.464 62.889C192.574 62.7717 192.747 62.713 192.981 62.713C193.216 62.713 193.385 62.7717 193.487 62.889C193.597 63.0063 193.652 63.1603 193.652 63.351V63.494C193.652 63.6847 193.597 63.8387 193.487 63.956C193.385 64.0733 193.216 64.132 192.981 64.132Z" fill="#9C9C9C"/>
      <rect x="82.2499" y="100.25" width="137.5" height="25.5" rx="1.75" fill="#FBFBFB"/>
      <rect x="82.2499" y="100.25" width="137.5" height="25.5" rx="1.75" stroke="#E6E6E6" stroke-width="0.5"/>
      <g clip-path="url(#clip1_4092_171171)">
        <path d="M91.9999 109.667C91.9999 109.313 92.1404 108.974 92.3904 108.724C92.6405 108.474 92.9796 108.333 93.3332 108.333H102.667C103.02 108.333 103.359 108.474 103.609 108.724C103.859 108.974 104 109.313 104 109.667V116.333C104 116.687 103.859 117.026 103.609 117.276C103.359 117.526 103.02 117.667 102.667 117.667H93.3332C92.9796 117.667 92.6405 117.526 92.3904 117.276C92.1404 117.026 91.9999 116.687 91.9999 116.333V109.667Z" stroke="#666666" stroke-linecap="round" stroke-linejoin="round"/>
        <path d="M91.9999 109.667L97.9999 113.667L104 109.667" stroke="#666666" stroke-linecap="round" stroke-linejoin="round"/>
      </g>
      <path d="M116.28 118L114.24 109.624H115.308L116.208 113.656L116.904 116.788H116.928L117.708 113.656L118.764 109.624H119.916L120.936 113.656L121.716 116.776H121.752L122.472 113.656L123.42 109.624H124.452L122.304 118H121.188L120.096 113.824L119.328 110.752H119.304L118.512 113.824L117.396 118H116.28ZM125.59 118V111.808H126.55V112.948H126.61C126.722 112.652 126.922 112.388 127.21 112.156C127.498 111.924 127.894 111.808 128.398 111.808H128.77V112.768H128.206C127.686 112.768 127.278 112.868 126.982 113.068C126.694 113.26 126.55 113.504 126.55 113.8V118H125.59ZM130.476 110.356C130.268 110.356 130.116 110.308 130.02 110.212C129.932 110.108 129.888 109.976 129.888 109.816V109.66C129.888 109.5 129.932 109.372 130.02 109.276C130.116 109.172 130.268 109.12 130.476 109.12C130.684 109.12 130.832 109.172 130.92 109.276C131.016 109.372 131.064 109.5 131.064 109.66V109.816C131.064 109.976 131.016 110.108 130.92 110.212C130.832 110.308 130.684 110.356 130.476 110.356ZM129.996 111.808H130.956V118H129.996V111.808ZM134.364 118C134.028 118 133.772 117.908 133.596 117.724C133.428 117.532 133.344 117.284 133.344 116.98V112.648H132.324V111.808H132.9C133.108 111.808 133.248 111.768 133.32 111.688C133.4 111.6 133.44 111.452 133.44 111.244V110.092H134.304V111.808H135.66V112.648H134.304V117.16H135.564V118H134.364ZM139.485 118.144C139.061 118.144 138.677 118.068 138.333 117.916C137.997 117.764 137.705 117.548 137.457 117.268C137.217 116.98 137.029 116.64 136.893 116.248C136.765 115.848 136.701 115.4 136.701 114.904C136.701 114.416 136.765 113.972 136.893 113.572C137.029 113.172 137.217 112.832 137.457 112.552C137.705 112.264 137.997 112.044 138.333 111.892C138.677 111.74 139.061 111.664 139.485 111.664C139.901 111.664 140.273 111.74 140.601 111.892C140.929 112.044 141.209 112.256 141.441 112.528C141.673 112.792 141.849 113.108 141.969 113.476C142.097 113.844 142.161 114.248 142.161 114.688V115.144H137.709V115.432C137.709 115.696 137.749 115.944 137.829 116.176C137.917 116.4 138.037 116.596 138.189 116.764C138.349 116.932 138.541 117.064 138.765 117.16C138.997 117.256 139.257 117.304 139.545 117.304C139.937 117.304 140.277 117.212 140.565 117.028C140.861 116.844 141.089 116.58 141.249 116.236L141.933 116.728C141.733 117.152 141.421 117.496 140.997 117.76C140.573 118.016 140.069 118.144 139.485 118.144ZM139.485 112.468C139.221 112.468 138.981 112.516 138.765 112.612C138.549 112.7 138.361 112.828 138.201 112.996C138.049 113.164 137.929 113.364 137.841 113.596C137.753 113.82 137.709 114.068 137.709 114.34V114.424H141.129V114.292C141.129 113.74 140.977 113.3 140.673 112.972C140.377 112.636 139.981 112.468 139.485 112.468ZM146.578 118V111.808H147.538V112.816H147.586C147.658 112.656 147.738 112.508 147.826 112.372C147.922 112.228 148.034 112.104 148.162 112C148.298 111.896 148.454 111.816 148.63 111.76C148.806 111.696 149.014 111.664 149.254 111.664C149.662 111.664 150.038 111.764 150.382 111.964C150.726 112.156 150.982 112.476 151.15 112.924H151.174C151.286 112.588 151.494 112.296 151.798 112.048C152.11 111.792 152.53 111.664 153.058 111.664C153.69 111.664 154.182 111.872 154.534 112.288C154.894 112.696 155.074 113.276 155.074 114.028V118H154.114V114.196C154.114 113.644 154.006 113.228 153.79 112.948C153.574 112.668 153.23 112.528 152.758 112.528C152.566 112.528 152.382 112.552 152.206 112.6C152.038 112.648 151.886 112.72 151.75 112.816C151.614 112.912 151.506 113.036 151.426 113.188C151.346 113.332 151.306 113.504 151.306 113.704V118H150.346V114.196C150.346 113.644 150.238 113.228 150.022 112.948C149.806 112.668 149.47 112.528 149.014 112.528C148.822 112.528 148.638 112.552 148.462 112.6C148.286 112.648 148.13 112.72 147.994 112.816C147.858 112.912 147.746 113.036 147.658 113.188C147.578 113.332 147.538 113.504 147.538 113.704V118H146.578ZM159.383 118.144C158.959 118.144 158.575 118.068 158.231 117.916C157.895 117.764 157.603 117.548 157.355 117.268C157.115 116.98 156.927 116.64 156.791 116.248C156.663 115.848 156.599 115.4 156.599 114.904C156.599 114.416 156.663 113.972 156.791 113.572C156.927 113.172 157.115 112.832 157.355 112.552C157.603 112.264 157.895 112.044 158.231 111.892C158.575 111.74 158.959 111.664 159.383 111.664C159.799 111.664 160.171 111.74 160.499 111.892C160.827 112.044 161.107 112.256 161.339 112.528C161.571 112.792 161.747 113.108 161.867 113.476C161.995 113.844 162.059 114.248 162.059 114.688V115.144H157.607V115.432C157.607 115.696 157.647 115.944 157.727 116.176C157.815 116.4 157.935 116.596 158.087 116.764C158.247 116.932 158.439 117.064 158.663 117.16C158.895 117.256 159.155 117.304 159.443 117.304C159.835 117.304 160.175 117.212 160.463 117.028C160.759 116.844 160.987 116.58 161.147 116.236L161.831 116.728C161.631 117.152 161.319 117.496 160.895 117.76C160.471 118.016 159.967 118.144 159.383 118.144ZM159.383 112.468C159.119 112.468 158.879 112.516 158.663 112.612C158.447 112.7 158.259 112.828 158.099 112.996C157.947 113.164 157.827 113.364 157.739 113.596C157.651 113.82 157.607 114.068 157.607 114.34V114.424H161.027V114.292C161.027 113.74 160.875 113.3 160.571 112.972C160.275 112.636 159.879 112.468 159.383 112.468ZM170.977 118C170.617 118 170.357 117.904 170.197 117.712C170.045 117.52 169.949 117.28 169.909 116.992H169.849C169.713 117.376 169.489 117.664 169.177 117.856C168.865 118.048 168.493 118.144 168.061 118.144C167.405 118.144 166.893 117.976 166.525 117.64C166.165 117.304 165.985 116.848 165.985 116.272C165.985 115.688 166.197 115.24 166.621 114.928C167.053 114.616 167.721 114.46 168.625 114.46H169.849V113.848C169.849 113.408 169.729 113.072 169.489 112.84C169.249 112.608 168.881 112.492 168.385 112.492C168.009 112.492 167.693 112.576 167.437 112.744C167.189 112.912 166.981 113.136 166.813 113.416L166.237 112.876C166.405 112.54 166.673 112.256 167.041 112.024C167.409 111.784 167.873 111.664 168.433 111.664C169.185 111.664 169.769 111.848 170.185 112.216C170.601 112.584 170.809 113.096 170.809 113.752V117.16H171.517V118H170.977ZM168.217 117.328C168.457 117.328 168.677 117.3 168.877 117.244C169.077 117.188 169.249 117.108 169.393 117.004C169.537 116.9 169.649 116.78 169.729 116.644C169.809 116.508 169.849 116.36 169.849 116.2V115.18H168.577C168.025 115.18 167.621 115.26 167.365 115.42C167.117 115.58 166.993 115.812 166.993 116.116V116.368C166.993 116.672 167.101 116.908 167.317 117.076C167.541 117.244 167.841 117.328 168.217 117.328ZM172.887 118V111.808H173.847V112.816H173.895C174.047 112.464 174.259 112.184 174.531 111.976C174.811 111.768 175.183 111.664 175.647 111.664C176.287 111.664 176.791 111.872 177.159 112.288C177.535 112.696 177.723 113.276 177.723 114.028V118H176.763V114.196C176.763 113.084 176.295 112.528 175.359 112.528C175.167 112.528 174.979 112.552 174.795 112.6C174.619 112.648 174.459 112.72 174.315 112.816C174.171 112.912 174.055 113.036 173.967 113.188C173.887 113.332 173.847 113.504 173.847 113.704V118H172.887ZM184.871 118.144C184.447 118.144 184.063 118.068 183.719 117.916C183.383 117.764 183.091 117.548 182.843 117.268C182.603 116.98 182.415 116.64 182.279 116.248C182.151 115.848 182.087 115.4 182.087 114.904C182.087 114.416 182.151 113.972 182.279 113.572C182.415 113.172 182.603 112.832 182.843 112.552C183.091 112.264 183.383 112.044 183.719 111.892C184.063 111.74 184.447 111.664 184.871 111.664C185.287 111.664 185.659 111.74 185.987 111.892C186.315 112.044 186.595 112.256 186.827 112.528C187.059 112.792 187.235 113.108 187.355 113.476C187.483 113.844 187.547 114.248 187.547 114.688V115.144H183.095V115.432C183.095 115.696 183.135 115.944 183.215 116.176C183.303 116.4 183.423 116.596 183.575 116.764C183.735 116.932 183.927 117.064 184.151 117.16C184.383 117.256 184.643 117.304 184.931 117.304C185.323 117.304 185.663 117.212 185.951 117.028C186.247 116.844 186.475 116.58 186.635 116.236L187.319 116.728C187.119 117.152 186.807 117.496 186.383 117.76C185.959 118.016 185.455 118.144 184.871 118.144ZM184.871 112.468C184.607 112.468 184.367 112.516 184.151 112.612C183.935 112.7 183.747 112.828 183.587 112.996C183.435 113.164 183.315 113.364 183.227 113.596C183.139 113.82 183.095 114.068 183.095 114.34V114.424H186.515V114.292C186.515 113.74 186.363 113.3 186.059 112.972C185.763 112.636 185.367 112.468 184.871 112.468ZM189.129 118V111.808H190.089V112.816H190.137C190.209 112.656 190.289 112.508 190.377 112.372C190.473 112.228 190.585 112.104 190.713 112C190.849 111.896 191.005 111.816 191.181 111.76C191.357 111.696 191.565 111.664 191.805 111.664C192.213 111.664 192.589 111.764 192.933 111.964C193.277 112.156 193.533 112.476 193.701 112.924H193.725C193.837 112.588 194.045 112.296 194.349 112.048C194.661 111.792 195.081 111.664 195.609 111.664C196.241 111.664 196.733 111.872 197.085 112.288C197.445 112.696 197.625 113.276 197.625 114.028V118H196.665V114.196C196.665 113.644 196.557 113.228 196.341 112.948C196.125 112.668 195.781 112.528 195.309 112.528C195.117 112.528 194.933 112.552 194.757 112.6C194.589 112.648 194.437 112.72 194.301 112.816C194.165 112.912 194.057 113.036 193.977 113.188C193.897 113.332 193.857 113.504 193.857 113.704V118H192.897V114.196C192.897 113.644 192.789 113.228 192.573 112.948C192.357 112.668 192.021 112.528 191.565 112.528C191.373 112.528 191.189 112.552 191.013 112.6C190.837 112.648 190.681 112.72 190.545 112.816C190.409 112.912 190.297 113.036 190.209 113.188C190.129 113.332 190.089 113.504 190.089 113.704V118H189.129ZM204.106 118C203.746 118 203.486 117.904 203.326 117.712C203.174 117.52 203.078 117.28 203.038 116.992H202.978C202.842 117.376 202.618 117.664 202.306 117.856C201.994 118.048 201.622 118.144 201.19 118.144C200.534 118.144 200.022 117.976 199.654 117.64C199.294 117.304 199.114 116.848 199.114 116.272C199.114 115.688 199.326 115.24 199.75 114.928C200.182 114.616 200.85 114.46 201.754 114.46H202.978V113.848C202.978 113.408 202.858 113.072 202.618 112.84C202.378 112.608 202.01 112.492 201.514 112.492C201.138 112.492 200.822 112.576 200.566 112.744C200.318 112.912 200.11 113.136 199.942 113.416L199.366 112.876C199.534 112.54 199.802 112.256 200.17 112.024C200.538 111.784 201.002 111.664 201.562 111.664C202.314 111.664 202.898 111.848 203.314 112.216C203.73 112.584 203.938 113.096 203.938 113.752V117.16H204.646V118H204.106ZM201.346 117.328C201.586 117.328 201.806 117.3 202.006 117.244C202.206 117.188 202.378 117.108 202.522 117.004C202.666 116.9 202.778 116.78 202.858 116.644C202.938 116.508 202.978 116.36 202.978 116.2V115.18H201.706C201.154 115.18 200.75 115.26 200.494 115.42C200.246 115.58 200.122 115.812 200.122 116.116V116.368C200.122 116.672 200.23 116.908 200.446 117.076C200.67 117.244 200.97 117.328 201.346 117.328ZM206.496 110.356C206.288 110.356 206.136 110.308 206.04 110.212C205.952 110.108 205.908 109.976 205.908 109.816V109.66C205.908 109.5 205.952 109.372 206.04 109.276C206.136 109.172 206.288 109.12 206.496 109.12C206.704 109.12 206.852 109.172 206.94 109.276C207.036 109.372 207.084 109.5 207.084 109.66V109.816C207.084 109.976 207.036 110.108 206.94 110.212C206.852 110.308 206.704 110.356 206.496 110.356ZM206.016 111.808H206.976V118H206.016V111.808ZM210.036 118C209.7 118 209.444 117.908 209.268 117.724C209.1 117.532 209.016 117.292 209.016 117.004V109.12H209.976V117.16H210.888V118H210.036Z" fill="#1A1A1A"/>
      <rect x="82.2499" y="134.25" width="167.5" height="25.5" rx="1.75" fill="#FBFBFB"/>
      <rect x="82.2499" y="134.25" width="167.5" height="25.5" rx="1.75" stroke="#E6E6E6" stroke-width="0.5"/>
      <g clip-path="url(#clip2_4092_171171)">
        <path d="M99.3331 141V143.667C99.3331 143.843 99.4033 144.013 99.5283 144.138C99.6534 144.263 99.8229 144.333 99.9997 144.333H102.666" stroke="#666666" stroke-linecap="round" stroke-linejoin="round"/>
        <path d="M101.333 153H94.6664C94.3128 153 93.9736 152.86 93.7236 152.609C93.4735 152.359 93.3331 152.02 93.3331 151.667V142.333C93.3331 141.98 93.4735 141.641 93.7236 141.391C93.9736 141.14 94.3128 141 94.6664 141H99.3331L102.666 144.333V151.667C102.666 152.02 102.526 152.359 102.276 152.609C102.026 152.86 101.687 153 101.333 153Z" stroke="#666666" stroke-linecap="round" stroke-linejoin="round"/>
      </g>
      <path d="M117.468 152.144C116.788 152.144 116.208 152.016 115.728 151.76C115.248 151.496 114.84 151.136 114.504 150.68L115.248 150.056C115.544 150.448 115.872 150.748 116.232 150.956C116.592 151.156 117.016 151.256 117.504 151.256C118.104 151.256 118.56 151.112 118.872 150.824C119.192 150.536 119.352 150.152 119.352 149.672C119.352 149.272 119.232 148.964 118.992 148.748C118.752 148.532 118.356 148.36 117.804 148.232L117.12 148.076C116.352 147.9 115.764 147.636 115.356 147.284C114.956 146.924 114.756 146.42 114.756 145.772C114.756 145.404 114.824 145.076 114.96 144.788C115.096 144.5 115.284 144.26 115.524 144.068C115.772 143.876 116.064 143.732 116.4 143.636C116.744 143.532 117.12 143.48 117.528 143.48C118.16 143.48 118.7 143.596 119.148 143.828C119.604 144.06 119.988 144.4 120.3 144.848L119.544 145.4C119.312 145.08 119.032 144.828 118.704 144.644C118.376 144.46 117.968 144.368 117.48 144.368C116.944 144.368 116.52 144.484 116.208 144.716C115.904 144.94 115.752 145.28 115.752 145.736C115.752 146.136 115.88 146.44 116.136 146.648C116.4 146.848 116.796 147.008 117.324 147.128L118.008 147.284C118.832 147.468 119.428 147.748 119.796 148.124C120.164 148.5 120.348 149 120.348 149.624C120.348 150.008 120.28 150.356 120.144 150.668C120.016 150.98 119.828 151.244 119.58 151.46C119.332 151.676 119.028 151.844 118.668 151.964C118.316 152.084 117.916 152.144 117.468 152.144ZM125.809 150.992H125.761C125.697 151.136 125.617 151.28 125.521 151.424C125.433 151.56 125.321 151.684 125.185 151.796C125.049 151.9 124.885 151.984 124.693 152.048C124.501 152.112 124.277 152.144 124.021 152.144C123.381 152.144 122.873 151.94 122.497 151.532C122.121 151.116 121.933 150.532 121.933 149.78V145.808H122.893V149.612C122.893 150.724 123.365 151.28 124.309 151.28C124.501 151.28 124.685 151.256 124.861 151.208C125.045 151.16 125.205 151.088 125.341 150.992C125.485 150.896 125.597 150.776 125.677 150.632C125.765 150.48 125.809 150.3 125.809 150.092V145.808H126.769V152H125.809V150.992ZM128.813 152V145.808H129.773V146.816H129.821C129.893 146.656 129.973 146.508 130.061 146.372C130.157 146.228 130.269 146.104 130.397 146C130.533 145.896 130.689 145.816 130.865 145.76C131.041 145.696 131.249 145.664 131.489 145.664C131.897 145.664 132.273 145.764 132.617 145.964C132.961 146.156 133.217 146.476 133.385 146.924H133.409C133.521 146.588 133.729 146.296 134.033 146.048C134.345 145.792 134.765 145.664 135.293 145.664C135.925 145.664 136.417 145.872 136.769 146.288C137.129 146.696 137.309 147.276 137.309 148.028V152H136.349V148.196C136.349 147.644 136.241 147.228 136.025 146.948C135.809 146.668 135.465 146.528 134.993 146.528C134.801 146.528 134.617 146.552 134.441 146.6C134.273 146.648 134.121 146.72 133.985 146.816C133.849 146.912 133.741 147.036 133.661 147.188C133.581 147.332 133.541 147.504 133.541 147.704V152H132.581V148.196C132.581 147.644 132.473 147.228 132.257 146.948C132.041 146.668 131.705 146.528 131.249 146.528C131.057 146.528 130.873 146.552 130.697 146.6C130.521 146.648 130.365 146.72 130.229 146.816C130.093 146.912 129.981 147.036 129.893 147.188C129.813 147.332 129.773 147.504 129.773 147.704V152H128.813ZM139.289 152V145.808H140.249V146.816H140.297C140.369 146.656 140.449 146.508 140.537 146.372C140.633 146.228 140.745 146.104 140.873 146C141.009 145.896 141.165 145.816 141.341 145.76C141.517 145.696 141.725 145.664 141.965 145.664C142.373 145.664 142.749 145.764 143.093 145.964C143.437 146.156 143.693 146.476 143.861 146.924H143.885C143.997 146.588 144.205 146.296 144.509 146.048C144.821 145.792 145.241 145.664 145.769 145.664C146.401 145.664 146.893 145.872 147.245 146.288C147.605 146.696 147.785 147.276 147.785 148.028V152H146.825V148.196C146.825 147.644 146.717 147.228 146.501 146.948C146.285 146.668 145.941 146.528 145.469 146.528C145.277 146.528 145.093 146.552 144.917 146.6C144.749 146.648 144.597 146.72 144.461 146.816C144.325 146.912 144.217 147.036 144.137 147.188C144.057 147.332 144.017 147.504 144.017 147.704V152H143.057V148.196C143.057 147.644 142.949 147.228 142.733 146.948C142.517 146.668 142.181 146.528 141.725 146.528C141.533 146.528 141.349 146.552 141.173 146.6C140.997 146.648 140.841 146.72 140.705 146.816C140.569 146.912 140.457 147.036 140.369 147.188C140.289 147.332 140.249 147.504 140.249 147.704V152H139.289ZM154.266 152C153.906 152 153.646 151.904 153.486 151.712C153.334 151.52 153.238 151.28 153.198 150.992H153.138C153.002 151.376 152.778 151.664 152.466 151.856C152.154 152.048 151.782 152.144 151.35 152.144C150.694 152.144 150.182 151.976 149.814 151.64C149.454 151.304 149.274 150.848 149.274 150.272C149.274 149.688 149.486 149.24 149.91 148.928C150.342 148.616 151.01 148.46 151.914 148.46H153.138V147.848C153.138 147.408 153.018 147.072 152.778 146.84C152.538 146.608 152.17 146.492 151.674 146.492C151.298 146.492 150.982 146.576 150.726 146.744C150.478 146.912 150.27 147.136 150.102 147.416L149.526 146.876C149.694 146.54 149.962 146.256 150.33 146.024C150.698 145.784 151.162 145.664 151.722 145.664C152.474 145.664 153.058 145.848 153.474 146.216C153.89 146.584 154.098 147.096 154.098 147.752V151.16H154.806V152H154.266ZM151.506 151.328C151.746 151.328 151.966 151.3 152.166 151.244C152.366 151.188 152.538 151.108 152.682 151.004C152.826 150.9 152.938 150.78 153.018 150.644C153.098 150.508 153.138 150.36 153.138 150.2V149.18H151.866C151.314 149.18 150.91 149.26 150.654 149.42C150.406 149.58 150.282 149.812 150.282 150.116V150.368C150.282 150.672 150.39 150.908 150.606 151.076C150.83 151.244 151.13 151.328 151.506 151.328ZM156.176 152V145.808H157.136V146.948H157.196C157.308 146.652 157.508 146.388 157.796 146.156C158.084 145.924 158.48 145.808 158.984 145.808H159.356V146.768H158.792C158.272 146.768 157.864 146.868 157.568 147.068C157.28 147.26 157.136 147.504 157.136 147.8V152H156.176ZM161.062 144.356C160.854 144.356 160.702 144.308 160.606 144.212C160.518 144.108 160.474 143.976 160.474 143.816V143.66C160.474 143.5 160.518 143.372 160.606 143.276C160.702 143.172 160.854 143.12 161.062 143.12C161.27 143.12 161.418 143.172 161.506 143.276C161.602 143.372 161.65 143.5 161.65 143.66V143.816C161.65 143.976 161.602 144.108 161.506 144.212C161.418 144.308 161.27 144.356 161.062 144.356ZM160.582 145.808H161.542V152H160.582V145.808ZM162.958 152V151.196L166.474 146.648H163.066V145.808H167.638V146.528L164.05 151.16H167.734V152H162.958ZM171.36 152.144C170.936 152.144 170.552 152.068 170.208 151.916C169.872 151.764 169.58 151.548 169.332 151.268C169.092 150.98 168.904 150.64 168.768 150.248C168.64 149.848 168.576 149.4 168.576 148.904C168.576 148.416 168.64 147.972 168.768 147.572C168.904 147.172 169.092 146.832 169.332 146.552C169.58 146.264 169.872 146.044 170.208 145.892C170.552 145.74 170.936 145.664 171.36 145.664C171.776 145.664 172.148 145.74 172.476 145.892C172.804 146.044 173.084 146.256 173.316 146.528C173.548 146.792 173.724 147.108 173.844 147.476C173.972 147.844 174.036 148.248 174.036 148.688V149.144H169.584V149.432C169.584 149.696 169.624 149.944 169.704 150.176C169.792 150.4 169.912 150.596 170.064 150.764C170.224 150.932 170.416 151.064 170.64 151.16C170.872 151.256 171.132 151.304 171.42 151.304C171.812 151.304 172.152 151.212 172.44 151.028C172.736 150.844 172.964 150.58 173.124 150.236L173.808 150.728C173.608 151.152 173.296 151.496 172.872 151.76C172.448 152.016 171.944 152.144 171.36 152.144ZM171.36 146.468C171.096 146.468 170.856 146.516 170.64 146.612C170.424 146.7 170.236 146.828 170.076 146.996C169.924 147.164 169.804 147.364 169.716 147.596C169.628 147.82 169.584 148.068 169.584 148.34V148.424H173.004V148.292C173.004 147.74 172.852 147.3 172.548 146.972C172.252 146.636 171.856 146.468 171.36 146.468ZM182.953 152C182.593 152 182.333 151.904 182.173 151.712C182.021 151.52 181.925 151.28 181.885 150.992H181.825C181.689 151.376 181.465 151.664 181.153 151.856C180.841 152.048 180.469 152.144 180.037 152.144C179.381 152.144 178.869 151.976 178.501 151.64C178.141 151.304 177.961 150.848 177.961 150.272C177.961 149.688 178.173 149.24 178.597 148.928C179.029 148.616 179.697 148.46 180.601 148.46H181.825V147.848C181.825 147.408 181.705 147.072 181.465 146.84C181.225 146.608 180.857 146.492 180.361 146.492C179.985 146.492 179.669 146.576 179.413 146.744C179.165 146.912 178.957 147.136 178.789 147.416L178.213 146.876C178.381 146.54 178.649 146.256 179.017 146.024C179.385 145.784 179.849 145.664 180.409 145.664C181.161 145.664 181.745 145.848 182.161 146.216C182.577 146.584 182.785 147.096 182.785 147.752V151.16H183.493V152H182.953ZM180.193 151.328C180.433 151.328 180.653 151.3 180.853 151.244C181.053 151.188 181.225 151.108 181.369 151.004C181.513 150.9 181.625 150.78 181.705 150.644C181.785 150.508 181.825 150.36 181.825 150.2V149.18H180.553C180.001 149.18 179.597 149.26 179.341 149.42C179.093 149.58 178.969 149.812 178.969 150.116V150.368C178.969 150.672 179.077 150.908 179.293 151.076C179.517 151.244 179.817 151.328 180.193 151.328ZM191.66 150.992H191.612C191.236 151.76 190.632 152.144 189.8 152.144C189.416 152.144 189.068 152.068 188.756 151.916C188.444 151.764 188.176 151.548 187.952 151.268C187.736 150.988 187.568 150.648 187.448 150.248C187.336 149.848 187.28 149.4 187.28 148.904C187.28 148.408 187.336 147.96 187.448 147.56C187.568 147.16 187.736 146.82 187.952 146.54C188.176 146.26 188.444 146.044 188.756 145.892C189.068 145.74 189.416 145.664 189.8 145.664C190.232 145.664 190.6 145.76 190.904 145.952C191.216 146.136 191.452 146.424 191.612 146.816H191.66V143.12H192.62V152H191.66V150.992ZM190.064 151.28C190.28 151.28 190.484 151.252 190.676 151.196C190.876 151.14 191.048 151.06 191.192 150.956C191.336 150.844 191.448 150.712 191.528 150.56C191.616 150.4 191.66 150.22 191.66 150.02V147.716C191.66 147.548 191.616 147.392 191.528 147.248C191.448 147.096 191.336 146.968 191.192 146.864C191.048 146.76 190.876 146.68 190.676 146.624C190.484 146.56 190.28 146.528 190.064 146.528C189.52 146.528 189.092 146.7 188.78 147.044C188.468 147.38 188.312 147.824 188.312 148.376V149.432C188.312 149.984 188.468 150.432 188.78 150.776C189.092 151.112 189.52 151.28 190.064 151.28ZM197.001 152.144C196.585 152.144 196.205 152.068 195.861 151.916C195.517 151.764 195.221 151.548 194.973 151.268C194.733 150.98 194.545 150.64 194.409 150.248C194.273 149.848 194.205 149.4 194.205 148.904C194.205 148.416 194.273 147.972 194.409 147.572C194.545 147.172 194.733 146.832 194.973 146.552C195.221 146.264 195.517 146.044 195.861 145.892C196.205 145.74 196.585 145.664 197.001 145.664C197.417 145.664 197.793 145.74 198.129 145.892C198.473 146.044 198.769 146.264 199.017 146.552C199.265 146.832 199.457 147.172 199.593 147.572C199.729 147.972 199.797 148.416 199.797 148.904C199.797 149.4 199.729 149.848 199.593 150.248C199.457 150.64 199.265 150.98 199.017 151.268C198.769 151.548 198.473 151.764 198.129 151.916C197.793 152.068 197.417 152.144 197.001 152.144ZM197.001 151.292C197.521 151.292 197.945 151.132 198.273 150.812C198.601 150.492 198.765 150.004 198.765 149.348V148.46C198.765 147.804 198.601 147.316 198.273 146.996C197.945 146.676 197.521 146.516 197.001 146.516C196.481 146.516 196.057 146.676 195.729 146.996C195.401 147.316 195.237 147.804 195.237 148.46V149.348C195.237 150.004 195.401 150.492 195.729 150.812C196.057 151.132 196.481 151.292 197.001 151.292ZM203.679 152.144C203.247 152.144 202.859 152.068 202.515 151.916C202.171 151.764 201.879 151.548 201.639 151.268C201.407 150.988 201.227 150.648 201.099 150.248C200.979 149.848 200.919 149.4 200.919 148.904C200.919 148.408 200.979 147.96 201.099 147.56C201.227 147.16 201.407 146.82 201.639 146.54C201.879 146.26 202.171 146.044 202.515 145.892C202.859 145.74 203.247 145.664 203.679 145.664C204.295 145.664 204.787 145.8 205.155 146.072C205.531 146.336 205.811 146.684 205.995 147.116L205.191 147.524C205.079 147.204 204.895 146.956 204.639 146.78C204.383 146.604 204.063 146.516 203.679 146.516C203.391 146.516 203.139 146.564 202.923 146.66C202.707 146.748 202.527 146.876 202.383 147.044C202.239 147.204 202.131 147.4 202.059 147.632C201.987 147.856 201.951 148.104 201.951 148.376V149.432C201.951 149.976 202.095 150.424 202.383 150.776C202.679 151.12 203.111 151.292 203.679 151.292C204.455 151.292 205.015 150.932 205.359 150.212L206.055 150.68C205.855 151.128 205.555 151.484 205.155 151.748C204.763 152.012 204.271 152.144 203.679 152.144ZM211.227 150.992H211.179C211.115 151.136 211.035 151.28 210.939 151.424C210.851 151.56 210.739 151.684 210.603 151.796C210.467 151.9 210.303 151.984 210.111 152.048C209.919 152.112 209.695 152.144 209.439 152.144C208.799 152.144 208.291 151.94 207.915 151.532C207.539 151.116 207.351 150.532 207.351 149.78V145.808H208.311V149.612C208.311 150.724 208.783 151.28 209.727 151.28C209.919 151.28 210.103 151.256 210.279 151.208C210.463 151.16 210.623 151.088 210.759 150.992C210.903 150.896 211.015 150.776 211.095 150.632C211.183 150.48 211.227 150.3 211.227 150.092V145.808H212.187V152H211.227V150.992ZM214.231 152V145.808H215.191V146.816H215.239C215.311 146.656 215.391 146.508 215.479 146.372C215.575 146.228 215.687 146.104 215.815 146C215.951 145.896 216.107 145.816 216.283 145.76C216.459 145.696 216.667 145.664 216.907 145.664C217.315 145.664 217.691 145.764 218.035 145.964C218.379 146.156 218.635 146.476 218.803 146.924H218.827C218.939 146.588 219.147 146.296 219.451 146.048C219.763 145.792 220.183 145.664 220.711 145.664C221.343 145.664 221.835 145.872 222.187 146.288C222.547 146.696 222.727 147.276 222.727 148.028V152H221.767V148.196C221.767 147.644 221.659 147.228 221.443 146.948C221.227 146.668 220.883 146.528 220.411 146.528C220.219 146.528 220.035 146.552 219.859 146.6C219.691 146.648 219.539 146.72 219.403 146.816C219.267 146.912 219.159 147.036 219.079 147.188C218.999 147.332 218.959 147.504 218.959 147.704V152H217.999V148.196C217.999 147.644 217.891 147.228 217.675 146.948C217.459 146.668 217.123 146.528 216.667 146.528C216.475 146.528 216.291 146.552 216.115 146.6C215.939 146.648 215.783 146.72 215.647 146.816C215.511 146.912 215.399 147.036 215.311 147.188C215.231 147.332 215.191 147.504 215.191 147.704V152H214.231ZM227.035 152.144C226.611 152.144 226.227 152.068 225.883 151.916C225.547 151.764 225.255 151.548 225.007 151.268C224.767 150.98 224.579 150.64 224.443 150.248C224.315 149.848 224.251 149.4 224.251 148.904C224.251 148.416 224.315 147.972 224.443 147.572C224.579 147.172 224.767 146.832 225.007 146.552C225.255 146.264 225.547 146.044 225.883 145.892C226.227 145.74 226.611 145.664 227.035 145.664C227.451 145.664 227.823 145.74 228.151 145.892C228.479 146.044 228.759 146.256 228.991 146.528C229.223 146.792 229.399 147.108 229.519 147.476C229.647 147.844 229.711 148.248 229.711 148.688V149.144H225.259V149.432C225.259 149.696 225.299 149.944 225.379 150.176C225.467 150.4 225.587 150.596 225.739 150.764C225.899 150.932 226.091 151.064 226.315 151.16C226.547 151.256 226.807 151.304 227.095 151.304C227.487 151.304 227.827 151.212 228.115 151.028C228.411 150.844 228.639 150.58 228.799 150.236L229.483 150.728C229.283 151.152 228.971 151.496 228.547 151.76C228.123 152.016 227.619 152.144 227.035 152.144ZM227.035 146.468C226.771 146.468 226.531 146.516 226.315 146.612C226.099 146.7 225.911 146.828 225.751 146.996C225.599 147.164 225.479 147.364 225.391 147.596C225.303 147.82 225.259 148.068 225.259 148.34V148.424H228.679V148.292C228.679 147.74 228.527 147.3 228.223 146.972C227.927 146.636 227.531 146.468 227.035 146.468ZM231.293 152V145.808H232.253V146.816H232.301C232.453 146.464 232.665 146.184 232.937 145.976C233.217 145.768 233.589 145.664 234.053 145.664C234.693 145.664 235.197 145.872 235.565 146.288C235.941 146.696 236.129 147.276 236.129 148.028V152H235.169V148.196C235.169 147.084 234.701 146.528 233.765 146.528C233.573 146.528 233.385 146.552 233.201 146.6C233.025 146.648 232.865 146.72 232.721 146.816C232.577 146.912 232.461 147.036 232.373 147.188C232.293 147.332 232.253 147.504 232.253 147.704V152H231.293ZM239.482 152C239.146 152 238.89 151.908 238.714 151.724C238.546 151.532 238.462 151.284 238.462 150.98V146.648H237.442V145.808H238.018C238.226 145.808 238.366 145.768 238.438 145.688C238.518 145.6 238.558 145.452 238.558 145.244V144.092H239.422V145.808H240.778V146.648H239.422V151.16H240.682V152H239.482Z" fill="#1A1A1A"/>
      <rect x="82.2499" y="168.25" width="119.5" height="25.5" rx="1.75" fill="#FBFBFB"/>
      <rect x="82.2499" y="168.25" width="119.5" height="25.5" rx="1.75" stroke="#E6E6E6" stroke-width="0.5"/>
      <path d="M94.6665 178.333L91.9999 181L94.6665 183.667" stroke="#666666" stroke-linecap="round" stroke-linejoin="round"/>
      <path d="M101.333 178.333L104 181L101.333 183.667" stroke="#666666" stroke-linecap="round" stroke-linejoin="round"/>
      <path d="M99.3332 175.667L96.6666 186.333" stroke="#666666" stroke-linecap="round" stroke-linejoin="round"/>
      <path d="M117.936 178.512V186H116.928V178.512H114.264V177.624H120.6V178.512H117.936ZM121.348 186V179.808H122.308V180.948H122.368C122.48 180.652 122.68 180.388 122.968 180.156C123.256 179.924 123.652 179.808 124.156 179.808H124.528V180.768H123.964C123.444 180.768 123.036 180.868 122.74 181.068C122.452 181.26 122.308 181.504 122.308 181.8V186H121.348ZM130.207 186C129.847 186 129.587 185.904 129.427 185.712C129.275 185.52 129.179 185.28 129.139 184.992H129.079C128.943 185.376 128.719 185.664 128.407 185.856C128.095 186.048 127.723 186.144 127.291 186.144C126.635 186.144 126.123 185.976 125.755 185.64C125.395 185.304 125.215 184.848 125.215 184.272C125.215 183.688 125.427 183.24 125.851 182.928C126.283 182.616 126.951 182.46 127.855 182.46H129.079V181.848C129.079 181.408 128.959 181.072 128.719 180.84C128.479 180.608 128.111 180.492 127.615 180.492C127.239 180.492 126.923 180.576 126.667 180.744C126.419 180.912 126.211 181.136 126.043 181.416L125.467 180.876C125.635 180.54 125.903 180.256 126.271 180.024C126.639 179.784 127.103 179.664 127.663 179.664C128.415 179.664 128.999 179.848 129.415 180.216C129.831 180.584 130.039 181.096 130.039 181.752V185.16H130.747V186H130.207ZM127.447 185.328C127.687 185.328 127.907 185.3 128.107 185.244C128.307 185.188 128.479 185.108 128.623 185.004C128.767 184.9 128.879 184.78 128.959 184.644C129.039 184.508 129.079 184.36 129.079 184.2V183.18H127.807C127.255 183.18 126.851 183.26 126.595 183.42C126.347 183.58 126.223 183.812 126.223 184.116V184.368C126.223 184.672 126.331 184.908 126.547 185.076C126.771 185.244 127.071 185.328 127.447 185.328ZM132.118 186V179.808H133.078V180.816H133.126C133.278 180.464 133.49 180.184 133.762 179.976C134.042 179.768 134.414 179.664 134.878 179.664C135.518 179.664 136.022 179.872 136.39 180.288C136.766 180.696 136.954 181.276 136.954 182.028V186H135.994V182.196C135.994 181.084 135.526 180.528 134.59 180.528C134.398 180.528 134.21 180.552 134.026 180.6C133.85 180.648 133.69 180.72 133.546 180.816C133.402 180.912 133.286 181.036 133.198 181.188C133.118 181.332 133.078 181.504 133.078 181.704V186H132.118ZM140.798 186.144C140.222 186.144 139.738 186.036 139.346 185.82C138.962 185.596 138.63 185.3 138.35 184.932L139.034 184.38C139.274 184.684 139.542 184.92 139.838 185.088C140.134 185.248 140.478 185.328 140.87 185.328C141.278 185.328 141.594 185.24 141.818 185.064C142.05 184.888 142.166 184.64 142.166 184.32C142.166 184.08 142.086 183.876 141.926 183.708C141.774 183.532 141.494 183.412 141.086 183.348L140.594 183.276C140.306 183.236 140.042 183.176 139.802 183.096C139.562 183.008 139.35 182.896 139.166 182.76C138.99 182.616 138.85 182.44 138.746 182.232C138.65 182.024 138.602 181.776 138.602 181.488C138.602 181.184 138.658 180.92 138.77 180.696C138.882 180.464 139.034 180.272 139.226 180.12C139.426 179.968 139.662 179.856 139.934 179.784C140.206 179.704 140.498 179.664 140.81 179.664C141.314 179.664 141.734 179.752 142.07 179.928C142.414 180.104 142.714 180.348 142.97 180.66L142.334 181.236C142.198 181.044 141.998 180.872 141.734 180.72C141.47 180.56 141.138 180.48 140.738 180.48C140.338 180.48 140.034 180.568 139.826 180.744C139.626 180.912 139.526 181.144 139.526 181.44C139.526 181.744 139.626 181.964 139.826 182.1C140.034 182.236 140.33 182.336 140.714 182.4L141.194 182.472C141.882 182.576 142.37 182.776 142.658 183.072C142.946 183.36 143.09 183.74 143.09 184.212C143.09 184.812 142.886 185.284 142.478 185.628C142.07 185.972 141.51 186.144 140.798 186.144ZM145.806 186C145.47 186 145.214 185.908 145.038 185.724C144.87 185.532 144.786 185.292 144.786 185.004V177.12H145.746V185.16H146.658V186H145.806ZM152.555 186C152.195 186 151.935 185.904 151.775 185.712C151.623 185.52 151.527 185.28 151.487 184.992H151.427C151.291 185.376 151.067 185.664 150.755 185.856C150.443 186.048 150.071 186.144 149.639 186.144C148.983 186.144 148.471 185.976 148.103 185.64C147.743 185.304 147.563 184.848 147.563 184.272C147.563 183.688 147.775 183.24 148.199 182.928C148.631 182.616 149.299 182.46 150.203 182.46H151.427V181.848C151.427 181.408 151.307 181.072 151.067 180.84C150.827 180.608 150.459 180.492 149.963 180.492C149.587 180.492 149.271 180.576 149.015 180.744C148.767 180.912 148.559 181.136 148.391 181.416L147.815 180.876C147.983 180.54 148.251 180.256 148.619 180.024C148.987 179.784 149.451 179.664 150.011 179.664C150.763 179.664 151.347 179.848 151.763 180.216C152.179 180.584 152.387 181.096 152.387 181.752V185.16H153.095V186H152.555ZM149.795 185.328C150.035 185.328 150.255 185.3 150.455 185.244C150.655 185.188 150.827 185.108 150.971 185.004C151.115 184.9 151.227 184.78 151.307 184.644C151.387 184.508 151.427 184.36 151.427 184.2V183.18H150.155C149.603 183.18 149.199 183.26 148.943 183.42C148.695 183.58 148.571 183.812 148.571 184.116V184.368C148.571 184.672 148.679 184.908 148.895 185.076C149.119 185.244 149.419 185.328 149.795 185.328ZM155.833 186C155.497 186 155.241 185.908 155.065 185.724C154.897 185.532 154.813 185.284 154.813 184.98V180.648H153.793V179.808H154.369C154.577 179.808 154.717 179.768 154.789 179.688C154.869 179.6 154.909 179.452 154.909 179.244V178.092H155.773V179.808H157.129V180.648H155.773V185.16H157.033V186H155.833ZM160.953 186.144C160.529 186.144 160.145 186.068 159.801 185.916C159.465 185.764 159.173 185.548 158.925 185.268C158.685 184.98 158.497 184.64 158.361 184.248C158.233 183.848 158.169 183.4 158.169 182.904C158.169 182.416 158.233 181.972 158.361 181.572C158.497 181.172 158.685 180.832 158.925 180.552C159.173 180.264 159.465 180.044 159.801 179.892C160.145 179.74 160.529 179.664 160.953 179.664C161.369 179.664 161.741 179.74 162.069 179.892C162.397 180.044 162.677 180.256 162.909 180.528C163.141 180.792 163.317 181.108 163.437 181.476C163.565 181.844 163.629 182.248 163.629 182.688V183.144H159.177V183.432C159.177 183.696 159.217 183.944 159.297 184.176C159.385 184.4 159.505 184.596 159.657 184.764C159.817 184.932 160.009 185.064 160.233 185.16C160.465 185.256 160.725 185.304 161.013 185.304C161.405 185.304 161.745 185.212 162.033 185.028C162.329 184.844 162.557 184.58 162.717 184.236L163.401 184.728C163.201 185.152 162.889 185.496 162.465 185.76C162.041 186.016 161.537 186.144 160.953 186.144ZM160.953 180.468C160.689 180.468 160.449 180.516 160.233 180.612C160.017 180.7 159.829 180.828 159.669 180.996C159.517 181.164 159.397 181.364 159.309 181.596C159.221 181.82 159.177 182.068 159.177 182.34V182.424H162.597V182.292C162.597 181.74 162.445 181.3 162.141 180.972C161.845 180.636 161.449 180.468 160.953 180.468ZM170.351 186.144C169.919 186.144 169.531 186.068 169.187 185.916C168.843 185.764 168.551 185.548 168.311 185.268C168.079 184.988 167.899 184.648 167.771 184.248C167.651 183.848 167.591 183.4 167.591 182.904C167.591 182.408 167.651 181.96 167.771 181.56C167.899 181.16 168.079 180.82 168.311 180.54C168.551 180.26 168.843 180.044 169.187 179.892C169.531 179.74 169.919 179.664 170.351 179.664C170.967 179.664 171.459 179.8 171.827 180.072C172.203 180.336 172.483 180.684 172.667 181.116L171.863 181.524C171.751 181.204 171.567 180.956 171.311 180.78C171.055 180.604 170.735 180.516 170.351 180.516C170.063 180.516 169.811 180.564 169.595 180.66C169.379 180.748 169.199 180.876 169.055 181.044C168.911 181.204 168.803 181.4 168.731 181.632C168.659 181.856 168.623 182.104 168.623 182.376V183.432C168.623 183.976 168.767 184.424 169.055 184.776C169.351 185.12 169.783 185.292 170.351 185.292C171.127 185.292 171.687 184.932 172.031 184.212L172.727 184.68C172.527 185.128 172.227 185.484 171.827 185.748C171.435 186.012 170.943 186.144 170.351 186.144ZM176.352 186.144C175.936 186.144 175.556 186.068 175.212 185.916C174.868 185.764 174.572 185.548 174.324 185.268C174.084 184.98 173.896 184.64 173.76 184.248C173.624 183.848 173.556 183.4 173.556 182.904C173.556 182.416 173.624 181.972 173.76 181.572C173.896 181.172 174.084 180.832 174.324 180.552C174.572 180.264 174.868 180.044 175.212 179.892C175.556 179.74 175.936 179.664 176.352 179.664C176.768 179.664 177.144 179.74 177.48 179.892C177.824 180.044 178.12 180.264 178.368 180.552C178.616 180.832 178.808 181.172 178.944 181.572C179.08 181.972 179.148 182.416 179.148 182.904C179.148 183.4 179.08 183.848 178.944 184.248C178.808 184.64 178.616 184.98 178.368 185.268C178.12 185.548 177.824 185.764 177.48 185.916C177.144 186.068 176.768 186.144 176.352 186.144ZM176.352 185.292C176.872 185.292 177.296 185.132 177.624 184.812C177.952 184.492 178.116 184.004 178.116 183.348V182.46C178.116 181.804 177.952 181.316 177.624 180.996C177.296 180.676 176.872 180.516 176.352 180.516C175.832 180.516 175.408 180.676 175.08 180.996C174.752 181.316 174.588 181.804 174.588 182.46V183.348C174.588 184.004 174.752 184.492 175.08 184.812C175.408 185.132 175.832 185.292 176.352 185.292ZM184.687 184.992H184.639C184.263 185.76 183.659 186.144 182.827 186.144C182.443 186.144 182.095 186.068 181.783 185.916C181.471 185.764 181.203 185.548 180.979 185.268C180.763 184.988 180.595 184.648 180.475 184.248C180.363 183.848 180.307 183.4 180.307 182.904C180.307 182.408 180.363 181.96 180.475 181.56C180.595 181.16 180.763 180.82 180.979 180.54C181.203 180.26 181.471 180.044 181.783 179.892C182.095 179.74 182.443 179.664 182.827 179.664C183.259 179.664 183.627 179.76 183.931 179.952C184.243 180.136 184.479 180.424 184.639 180.816H184.687V177.12H185.647V186H184.687V184.992ZM183.091 185.28C183.307 185.28 183.511 185.252 183.703 185.196C183.903 185.14 184.075 185.06 184.219 184.956C184.363 184.844 184.475 184.712 184.555 184.56C184.643 184.4 184.687 184.22 184.687 184.02V181.716C184.687 181.548 184.643 181.392 184.555 181.248C184.475 181.096 184.363 180.968 184.219 180.864C184.075 180.76 183.903 180.68 183.703 180.624C183.511 180.56 183.307 180.528 183.091 180.528C182.547 180.528 182.119 180.7 181.807 181.044C181.495 181.38 181.339 181.824 181.339 182.376V183.432C181.339 183.984 181.495 184.432 181.807 184.776C182.119 185.112 182.547 185.28 183.091 185.28ZM190.016 186.144C189.592 186.144 189.208 186.068 188.864 185.916C188.528 185.764 188.236 185.548 187.988 185.268C187.748 184.98 187.56 184.64 187.424 184.248C187.296 183.848 187.232 183.4 187.232 182.904C187.232 182.416 187.296 181.972 187.424 181.572C187.56 181.172 187.748 180.832 187.988 180.552C188.236 180.264 188.528 180.044 188.864 179.892C189.208 179.74 189.592 179.664 190.016 179.664C190.432 179.664 190.804 179.74 191.132 179.892C191.46 180.044 191.74 180.256 191.972 180.528C192.204 180.792 192.38 181.108 192.5 181.476C192.628 181.844 192.692 182.248 192.692 182.688V183.144H188.24V183.432C188.24 183.696 188.28 183.944 188.36 184.176C188.448 184.4 188.568 184.596 188.72 184.764C188.88 184.932 189.072 185.064 189.296 185.16C189.528 185.256 189.788 185.304 190.076 185.304C190.468 185.304 190.808 185.212 191.096 185.028C191.392 184.844 191.62 184.58 191.78 184.236L192.464 184.728C192.264 185.152 191.952 185.496 191.528 185.76C191.104 186.016 190.6 186.144 190.016 186.144ZM190.016 180.468C189.752 180.468 189.512 180.516 189.296 180.612C189.08 180.7 188.892 180.828 188.732 180.996C188.58 181.164 188.46 181.364 188.372 181.596C188.284 181.82 188.24 182.068 188.24 182.34V182.424H191.66V182.292C191.66 181.74 191.508 181.3 191.204 180.972C190.908 180.636 190.512 180.468 190.016 180.468Z" fill="#1A1A1A"/>
      <rect x="82.2499" y="202.25" width="162.5" height="25.5" rx="1.75" fill="#FBFBFB"/>
      <rect x="82.2499" y="202.25" width="162.5" height="25.5" rx="1.75" stroke="#E6E6E6" stroke-width="0.5"/>
      <g clip-path="url(#clip3_4092_171171)">
        <path d="M92.4025 211.798L97.1611 209.725C97.2397 209.692 97.3241 209.674 97.4096 209.674C97.495 209.673 97.5797 209.69 97.6586 209.723C97.7375 209.755 97.809 209.803 97.869 209.864C97.929 209.925 97.9762 209.997 98.0078 210.077L101.29 218.011C101.359 218.172 101.361 218.354 101.297 218.516C101.233 218.679 101.107 218.81 100.948 218.881L96.1898 220.953C96.1112 220.987 96.0267 221.005 95.9412 221.005C95.8557 221.006 95.771 220.989 95.692 220.957C95.613 220.924 95.5414 220.876 95.4813 220.815C95.4213 220.754 95.3741 220.682 95.3425 220.602L92.0598 212.667C91.9916 212.506 91.9893 212.325 92.0533 212.162C92.1174 211.999 92.2428 211.869 92.4025 211.798Z" stroke="#666666" stroke-linecap="round" stroke-linejoin="round"/>
        <path d="M99.9999 209.667H100.667C100.843 209.667 101.013 209.737 101.138 209.862C101.263 209.987 101.333 210.156 101.333 210.333V212.667" stroke="#666666" stroke-linecap="round" stroke-linejoin="round"/>
        <path d="M103.333 211C103.509 211.075 103.68 211.145 103.845 211.21C104.008 211.279 104.137 211.41 104.203 211.574C104.269 211.738 104.268 211.921 104.199 212.084L102.667 215.667" stroke="#666666" stroke-linecap="round" stroke-linejoin="round"/>
      </g>
      <path d="M116.124 220H115.116V211.624H118.452C119.188 211.624 119.76 211.828 120.168 212.236C120.584 212.644 120.792 213.232 120.792 214C120.792 214.616 120.648 215.124 120.36 215.524C120.08 215.916 119.664 216.176 119.112 216.304L121.032 220H119.892L118.08 216.4H116.124V220ZM118.452 215.536C118.852 215.536 119.16 215.432 119.376 215.224C119.6 215.016 119.712 214.72 119.712 214.336V213.712C119.712 213.328 119.6 213.032 119.376 212.824C119.16 212.616 118.852 212.512 118.452 212.512H116.124V215.536H118.452ZM124.848 220.144C124.424 220.144 124.04 220.068 123.696 219.916C123.36 219.764 123.068 219.548 122.82 219.268C122.58 218.98 122.392 218.64 122.256 218.248C122.128 217.848 122.064 217.4 122.064 216.904C122.064 216.416 122.128 215.972 122.256 215.572C122.392 215.172 122.58 214.832 122.82 214.552C123.068 214.264 123.36 214.044 123.696 213.892C124.04 213.74 124.424 213.664 124.848 213.664C125.264 213.664 125.636 213.74 125.964 213.892C126.292 214.044 126.572 214.256 126.804 214.528C127.036 214.792 127.212 215.108 127.332 215.476C127.46 215.844 127.524 216.248 127.524 216.688V217.144H123.072V217.432C123.072 217.696 123.112 217.944 123.192 218.176C123.28 218.4 123.4 218.596 123.552 218.764C123.712 218.932 123.904 219.064 124.128 219.16C124.36 219.256 124.62 219.304 124.908 219.304C125.3 219.304 125.64 219.212 125.928 219.028C126.224 218.844 126.452 218.58 126.612 218.236L127.296 218.728C127.096 219.152 126.784 219.496 126.36 219.76C125.936 220.016 125.432 220.144 124.848 220.144ZM124.848 214.468C124.584 214.468 124.344 214.516 124.128 214.612C123.912 214.7 123.724 214.828 123.564 214.996C123.412 215.164 123.292 215.364 123.204 215.596C123.116 215.82 123.072 216.068 123.072 216.34V216.424H126.492V216.292C126.492 215.74 126.34 215.3 126.036 214.972C125.74 214.636 125.344 214.468 124.848 214.468ZM131.41 220.144C130.978 220.144 130.59 220.068 130.246 219.916C129.902 219.764 129.61 219.548 129.37 219.268C129.138 218.988 128.958 218.648 128.83 218.248C128.71 217.848 128.65 217.4 128.65 216.904C128.65 216.408 128.71 215.96 128.83 215.56C128.958 215.16 129.138 214.82 129.37 214.54C129.61 214.26 129.902 214.044 130.246 213.892C130.59 213.74 130.978 213.664 131.41 213.664C132.026 213.664 132.518 213.8 132.886 214.072C133.262 214.336 133.542 214.684 133.726 215.116L132.922 215.524C132.81 215.204 132.626 214.956 132.37 214.78C132.114 214.604 131.794 214.516 131.41 214.516C131.122 214.516 130.87 214.564 130.654 214.66C130.438 214.748 130.258 214.876 130.114 215.044C129.97 215.204 129.862 215.4 129.79 215.632C129.718 215.856 129.682 216.104 129.682 216.376V217.432C129.682 217.976 129.826 218.424 130.114 218.776C130.41 219.12 130.842 219.292 131.41 219.292C132.186 219.292 132.746 218.932 133.09 218.212L133.786 218.68C133.586 219.128 133.286 219.484 132.886 219.748C132.494 220.012 132.002 220.144 131.41 220.144ZM137.411 220.144C136.995 220.144 136.615 220.068 136.271 219.916C135.927 219.764 135.631 219.548 135.383 219.268C135.143 218.98 134.955 218.64 134.819 218.248C134.683 217.848 134.615 217.4 134.615 216.904C134.615 216.416 134.683 215.972 134.819 215.572C134.955 215.172 135.143 214.832 135.383 214.552C135.631 214.264 135.927 214.044 136.271 213.892C136.615 213.74 136.995 213.664 137.411 213.664C137.827 213.664 138.203 213.74 138.539 213.892C138.883 214.044 139.179 214.264 139.427 214.552C139.675 214.832 139.867 215.172 140.003 215.572C140.139 215.972 140.207 216.416 140.207 216.904C140.207 217.4 140.139 217.848 140.003 218.248C139.867 218.64 139.675 218.98 139.427 219.268C139.179 219.548 138.883 219.764 138.539 219.916C138.203 220.068 137.827 220.144 137.411 220.144ZM137.411 219.292C137.931 219.292 138.355 219.132 138.683 218.812C139.011 218.492 139.175 218.004 139.175 217.348V216.46C139.175 215.804 139.011 215.316 138.683 214.996C138.355 214.676 137.931 214.516 137.411 214.516C136.891 214.516 136.467 214.676 136.139 214.996C135.811 215.316 135.647 215.804 135.647 216.46V217.348C135.647 218.004 135.811 218.492 136.139 218.812C136.467 219.132 136.891 219.292 137.411 219.292ZM141.786 220V213.808H142.746V214.816H142.794C142.866 214.656 142.946 214.508 143.034 214.372C143.13 214.228 143.242 214.104 143.37 214C143.506 213.896 143.662 213.816 143.838 213.76C144.014 213.696 144.222 213.664 144.462 213.664C144.87 213.664 145.246 213.764 145.59 213.964C145.934 214.156 146.19 214.476 146.358 214.924H146.382C146.494 214.588 146.702 214.296 147.006 214.048C147.318 213.792 147.738 213.664 148.266 213.664C148.898 213.664 149.39 213.872 149.742 214.288C150.102 214.696 150.282 215.276 150.282 216.028V220H149.322V216.196C149.322 215.644 149.214 215.228 148.998 214.948C148.782 214.668 148.438 214.528 147.966 214.528C147.774 214.528 147.59 214.552 147.414 214.6C147.246 214.648 147.094 214.72 146.958 214.816C146.822 214.912 146.714 215.036 146.634 215.188C146.554 215.332 146.514 215.504 146.514 215.704V220H145.554V216.196C145.554 215.644 145.446 215.228 145.23 214.948C145.014 214.668 144.678 214.528 144.222 214.528C144.03 214.528 143.846 214.552 143.67 214.6C143.494 214.648 143.338 214.72 143.202 214.816C143.066 214.912 142.954 215.036 142.866 215.188C142.786 215.332 142.746 215.504 142.746 215.704V220H141.786ZM152.262 220V213.808H153.222V214.816H153.27C153.342 214.656 153.422 214.508 153.51 214.372C153.606 214.228 153.718 214.104 153.846 214C153.982 213.896 154.138 213.816 154.314 213.76C154.49 213.696 154.698 213.664 154.938 213.664C155.346 213.664 155.722 213.764 156.066 213.964C156.41 214.156 156.666 214.476 156.834 214.924H156.858C156.97 214.588 157.178 214.296 157.482 214.048C157.794 213.792 158.214 213.664 158.742 213.664C159.374 213.664 159.866 213.872 160.218 214.288C160.578 214.696 160.758 215.276 160.758 216.028V220H159.798V216.196C159.798 215.644 159.69 215.228 159.474 214.948C159.258 214.668 158.914 214.528 158.442 214.528C158.25 214.528 158.066 214.552 157.89 214.6C157.722 214.648 157.57 214.72 157.434 214.816C157.298 214.912 157.19 215.036 157.11 215.188C157.03 215.332 156.99 215.504 156.99 215.704V220H156.03V216.196C156.03 215.644 155.922 215.228 155.706 214.948C155.49 214.668 155.154 214.528 154.698 214.528C154.506 214.528 154.322 214.552 154.146 214.6C153.97 214.648 153.814 214.72 153.678 214.816C153.542 214.912 153.43 215.036 153.342 215.188C153.262 215.332 153.222 215.504 153.222 215.704V220H152.262ZM165.067 220.144C164.643 220.144 164.259 220.068 163.915 219.916C163.579 219.764 163.287 219.548 163.039 219.268C162.799 218.98 162.611 218.64 162.475 218.248C162.347 217.848 162.283 217.4 162.283 216.904C162.283 216.416 162.347 215.972 162.475 215.572C162.611 215.172 162.799 214.832 163.039 214.552C163.287 214.264 163.579 214.044 163.915 213.892C164.259 213.74 164.643 213.664 165.067 213.664C165.483 213.664 165.855 213.74 166.183 213.892C166.511 214.044 166.791 214.256 167.023 214.528C167.255 214.792 167.431 215.108 167.551 215.476C167.679 215.844 167.743 216.248 167.743 216.688V217.144H163.291V217.432C163.291 217.696 163.331 217.944 163.411 218.176C163.499 218.4 163.619 218.596 163.771 218.764C163.931 218.932 164.123 219.064 164.347 219.16C164.579 219.256 164.839 219.304 165.127 219.304C165.519 219.304 165.859 219.212 166.147 219.028C166.443 218.844 166.671 218.58 166.831 218.236L167.515 218.728C167.315 219.152 167.003 219.496 166.579 219.76C166.155 220.016 165.651 220.144 165.067 220.144ZM165.067 214.468C164.803 214.468 164.563 214.516 164.347 214.612C164.131 214.7 163.943 214.828 163.783 214.996C163.631 215.164 163.511 215.364 163.423 215.596C163.335 215.82 163.291 216.068 163.291 216.34V216.424H166.711V216.292C166.711 215.74 166.559 215.3 166.255 214.972C165.959 214.636 165.563 214.468 165.067 214.468ZM169.325 220V213.808H170.285V214.816H170.333C170.485 214.464 170.697 214.184 170.969 213.976C171.249 213.768 171.621 213.664 172.085 213.664C172.725 213.664 173.229 213.872 173.597 214.288C173.973 214.696 174.161 215.276 174.161 216.028V220H173.201V216.196C173.201 215.084 172.733 214.528 171.797 214.528C171.605 214.528 171.417 214.552 171.233 214.6C171.057 214.648 170.897 214.72 170.753 214.816C170.609 214.912 170.493 215.036 170.405 215.188C170.325 215.332 170.285 215.504 170.285 215.704V220H169.325ZM180.105 218.992H180.057C179.681 219.76 179.077 220.144 178.245 220.144C177.861 220.144 177.513 220.068 177.201 219.916C176.889 219.764 176.621 219.548 176.397 219.268C176.181 218.988 176.013 218.648 175.893 218.248C175.781 217.848 175.725 217.4 175.725 216.904C175.725 216.408 175.781 215.96 175.893 215.56C176.013 215.16 176.181 214.82 176.397 214.54C176.621 214.26 176.889 214.044 177.201 213.892C177.513 213.74 177.861 213.664 178.245 213.664C178.677 213.664 179.045 213.76 179.349 213.952C179.661 214.136 179.897 214.424 180.057 214.816H180.105V211.12H181.065V220H180.105V218.992ZM178.509 219.28C178.725 219.28 178.929 219.252 179.121 219.196C179.321 219.14 179.493 219.06 179.637 218.956C179.781 218.844 179.893 218.712 179.973 218.56C180.061 218.4 180.105 218.22 180.105 218.02V215.716C180.105 215.548 180.061 215.392 179.973 215.248C179.893 215.096 179.781 214.968 179.637 214.864C179.493 214.76 179.321 214.68 179.121 214.624C178.929 214.56 178.725 214.528 178.509 214.528C177.965 214.528 177.537 214.7 177.225 215.044C176.913 215.38 176.757 215.824 176.757 216.376V217.432C176.757 217.984 176.913 218.432 177.225 218.776C177.537 219.112 177.965 219.28 178.509 219.28ZM190.442 220C190.082 220 189.822 219.904 189.662 219.712C189.51 219.52 189.414 219.28 189.374 218.992H189.314C189.178 219.376 188.954 219.664 188.642 219.856C188.33 220.048 187.958 220.144 187.526 220.144C186.87 220.144 186.358 219.976 185.99 219.64C185.63 219.304 185.45 218.848 185.45 218.272C185.45 217.688 185.662 217.24 186.086 216.928C186.518 216.616 187.186 216.46 188.09 216.46H189.314V215.848C189.314 215.408 189.194 215.072 188.954 214.84C188.714 214.608 188.346 214.492 187.85 214.492C187.474 214.492 187.158 214.576 186.902 214.744C186.654 214.912 186.446 215.136 186.278 215.416L185.702 214.876C185.87 214.54 186.138 214.256 186.506 214.024C186.874 213.784 187.338 213.664 187.898 213.664C188.65 213.664 189.234 213.848 189.65 214.216C190.066 214.584 190.274 215.096 190.274 215.752V219.16H190.982V220H190.442ZM187.682 219.328C187.922 219.328 188.142 219.3 188.342 219.244C188.542 219.188 188.714 219.108 188.858 219.004C189.002 218.9 189.114 218.78 189.194 218.644C189.274 218.508 189.314 218.36 189.314 218.2V217.18H188.042C187.49 217.18 187.086 217.26 186.83 217.42C186.582 217.58 186.458 217.812 186.458 218.116V218.368C186.458 218.672 186.566 218.908 186.782 219.076C187.006 219.244 187.306 219.328 187.682 219.328ZM195.188 213.808H196.148V214.816H196.196C196.356 214.424 196.588 214.136 196.892 213.952C197.204 213.76 197.576 213.664 198.008 213.664C198.392 213.664 198.74 213.74 199.052 213.892C199.364 214.044 199.628 214.26 199.844 214.54C200.068 214.82 200.236 215.16 200.348 215.56C200.468 215.96 200.528 216.408 200.528 216.904C200.528 217.4 200.468 217.848 200.348 218.248C200.236 218.648 200.068 218.988 199.844 219.268C199.628 219.548 199.364 219.764 199.052 219.916C198.74 220.068 198.392 220.144 198.008 220.144C197.168 220.144 196.564 219.76 196.196 218.992H196.148V222.4H195.188V213.808ZM197.744 219.28C198.288 219.28 198.716 219.112 199.028 218.776C199.34 218.432 199.496 217.984 199.496 217.432V216.376C199.496 215.824 199.34 215.38 199.028 215.044C198.716 214.7 198.288 214.528 197.744 214.528C197.528 214.528 197.32 214.56 197.12 214.624C196.928 214.68 196.76 214.76 196.616 214.864C196.472 214.968 196.356 215.096 196.268 215.248C196.188 215.392 196.148 215.548 196.148 215.716V218.02C196.148 218.22 196.188 218.4 196.268 218.56C196.356 218.712 196.472 218.844 196.616 218.956C196.76 219.06 196.928 219.14 197.12 219.196C197.32 219.252 197.528 219.28 197.744 219.28ZM202.149 220V213.808H203.109V214.948H203.169C203.281 214.652 203.481 214.388 203.769 214.156C204.057 213.924 204.453 213.808 204.957 213.808H205.329V214.768H204.765C204.245 214.768 203.837 214.868 203.541 215.068C203.253 215.26 203.109 215.504 203.109 215.8V220H202.149ZM208.836 220.144C208.42 220.144 208.04 220.068 207.696 219.916C207.352 219.764 207.056 219.548 206.808 219.268C206.568 218.98 206.38 218.64 206.244 218.248C206.108 217.848 206.04 217.4 206.04 216.904C206.04 216.416 206.108 215.972 206.244 215.572C206.38 215.172 206.568 214.832 206.808 214.552C207.056 214.264 207.352 214.044 207.696 213.892C208.04 213.74 208.42 213.664 208.836 213.664C209.252 213.664 209.628 213.74 209.964 213.892C210.308 214.044 210.604 214.264 210.852 214.552C211.1 214.832 211.292 215.172 211.428 215.572C211.564 215.972 211.632 216.416 211.632 216.904C211.632 217.4 211.564 217.848 211.428 218.248C211.292 218.64 211.1 218.98 210.852 219.268C210.604 219.548 210.308 219.764 209.964 219.916C209.628 220.068 209.252 220.144 208.836 220.144ZM208.836 219.292C209.356 219.292 209.78 219.132 210.108 218.812C210.436 218.492 210.6 218.004 210.6 217.348V216.46C210.6 215.804 210.436 215.316 210.108 214.996C209.78 214.676 209.356 214.516 208.836 214.516C208.316 214.516 207.892 214.676 207.564 214.996C207.236 215.316 207.072 215.804 207.072 216.46V217.348C207.072 218.004 207.236 218.492 207.564 218.812C207.892 219.132 208.316 219.292 208.836 219.292ZM217.171 218.992H217.123C216.747 219.76 216.143 220.144 215.311 220.144C214.927 220.144 214.579 220.068 214.267 219.916C213.955 219.764 213.687 219.548 213.463 219.268C213.247 218.988 213.079 218.648 212.959 218.248C212.847 217.848 212.791 217.4 212.791 216.904C212.791 216.408 212.847 215.96 212.959 215.56C213.079 215.16 213.247 214.82 213.463 214.54C213.687 214.26 213.955 214.044 214.267 213.892C214.579 213.74 214.927 213.664 215.311 213.664C215.743 213.664 216.111 213.76 216.415 213.952C216.727 214.136 216.963 214.424 217.123 214.816H217.171V211.12H218.131V220H217.171V218.992ZM215.575 219.28C215.791 219.28 215.995 219.252 216.187 219.196C216.387 219.14 216.559 219.06 216.703 218.956C216.847 218.844 216.959 218.712 217.039 218.56C217.127 218.4 217.171 218.22 217.171 218.02V215.716C217.171 215.548 217.127 215.392 217.039 215.248C216.959 215.096 216.847 214.968 216.703 214.864C216.559 214.76 216.387 214.68 216.187 214.624C215.995 214.56 215.791 214.528 215.575 214.528C215.031 214.528 214.603 214.7 214.291 215.044C213.979 215.38 213.823 215.824 213.823 216.376V217.432C213.823 217.984 213.979 218.432 214.291 218.776C214.603 219.112 215.031 219.28 215.575 219.28ZM223.988 218.992H223.94C223.876 219.136 223.796 219.28 223.7 219.424C223.612 219.56 223.5 219.684 223.364 219.796C223.228 219.9 223.064 219.984 222.872 220.048C222.68 220.112 222.456 220.144 222.2 220.144C221.56 220.144 221.052 219.94 220.676 219.532C220.3 219.116 220.112 218.532 220.112 217.78V213.808H221.072V217.612C221.072 218.724 221.544 219.28 222.488 219.28C222.68 219.28 222.864 219.256 223.04 219.208C223.224 219.16 223.384 219.088 223.52 218.992C223.664 218.896 223.776 218.776 223.856 218.632C223.944 218.48 223.988 218.3 223.988 218.092V213.808H224.948V220H223.988V218.992ZM229.297 220.144C228.865 220.144 228.477 220.068 228.133 219.916C227.789 219.764 227.497 219.548 227.257 219.268C227.025 218.988 226.845 218.648 226.717 218.248C226.597 217.848 226.537 217.4 226.537 216.904C226.537 216.408 226.597 215.96 226.717 215.56C226.845 215.16 227.025 214.82 227.257 214.54C227.497 214.26 227.789 214.044 228.133 213.892C228.477 213.74 228.865 213.664 229.297 213.664C229.913 213.664 230.405 213.8 230.773 214.072C231.149 214.336 231.429 214.684 231.613 215.116L230.809 215.524C230.697 215.204 230.513 214.956 230.257 214.78C230.001 214.604 229.681 214.516 229.297 214.516C229.009 214.516 228.757 214.564 228.541 214.66C228.325 214.748 228.145 214.876 228.001 215.044C227.857 215.204 227.749 215.4 227.677 215.632C227.605 215.856 227.569 216.104 227.569 216.376V217.432C227.569 217.976 227.713 218.424 228.001 218.776C228.297 219.12 228.729 219.292 229.297 219.292C230.073 219.292 230.633 218.932 230.977 218.212L231.673 218.68C231.473 219.128 231.173 219.484 230.773 219.748C230.381 220.012 229.889 220.144 229.297 220.144ZM234.396 220C234.06 220 233.804 219.908 233.628 219.724C233.46 219.532 233.376 219.284 233.376 218.98V214.648H232.356V213.808H232.932C233.14 213.808 233.28 213.768 233.352 213.688C233.432 213.6 233.472 213.452 233.472 213.244V212.092H234.336V213.808H235.692V214.648H234.336V219.16H235.596V220H234.396Z" fill="#1A1A1A"/>
      <rect x="82.2499" y="236.25" width="147.5" height="25.5" rx="1.75" fill="#FBFBFB"/>
      <rect x="82.2499" y="236.25" width="147.5" height="25.5" rx="1.75" stroke="#E6E6E6" stroke-width="0.5"/>
      <g clip-path="url(#clip4_4092_171171)">
        <path d="M97.3331 255H93.9997C93.8229 255 93.6534 254.93 93.5283 254.805C93.4033 254.68 93.3331 254.51 93.3331 254.333V243.667C93.3331 243.49 93.4033 243.32 93.5283 243.195C93.6534 243.07 93.8229 243 93.9997 243H102C102.177 243 102.346 243.07 102.471 243.195C102.596 243.32 102.666 243.49 102.666 243.667V247.667" stroke="#666666" stroke-linecap="round" stroke-linejoin="round"/>
        <path d="M101.867 254.878L100.419 255.637C100.376 255.659 100.327 255.669 100.279 255.665C100.231 255.662 100.184 255.645 100.145 255.617C100.106 255.588 100.075 255.55 100.057 255.505C100.038 255.46 100.032 255.411 100.04 255.363L100.317 253.756L99.1454 252.618C99.1104 252.584 99.0857 252.541 99.0739 252.494C99.0622 252.447 99.064 252.397 99.0791 252.351C99.0942 252.305 99.1219 252.264 99.1592 252.233C99.1965 252.201 99.2419 252.181 99.29 252.175L100.909 251.94L101.633 250.478C101.654 250.434 101.688 250.398 101.729 250.372C101.77 250.347 101.818 250.333 101.867 250.333C101.915 250.333 101.963 250.347 102.004 250.372C102.046 250.398 102.079 250.434 102.101 250.478L102.825 251.94L104.443 252.175C104.491 252.182 104.537 252.202 104.574 252.233C104.611 252.264 104.638 252.305 104.654 252.351C104.669 252.397 104.67 252.447 104.659 252.494C104.647 252.541 104.623 252.584 104.588 252.618L103.417 253.756L103.693 255.363C103.701 255.411 103.696 255.46 103.677 255.505C103.659 255.55 103.628 255.589 103.589 255.617C103.55 255.646 103.503 255.663 103.455 255.666C103.406 255.67 103.358 255.659 103.315 255.637L101.867 254.878Z" stroke="#666666" stroke-linecap="round" stroke-linejoin="round"/>
      </g>
      <path d="M118.068 254.144C117.004 254.144 116.176 253.784 115.584 253.064C114.992 252.336 114.696 251.268 114.696 249.86C114.696 248.452 114.992 247.372 115.584 246.62C116.176 245.86 117.004 245.48 118.068 245.48C118.772 245.48 119.36 245.64 119.832 245.96C120.312 246.28 120.684 246.732 120.948 247.316L120.132 247.808C119.964 247.376 119.708 247.032 119.364 246.776C119.02 246.512 118.588 246.38 118.068 246.38C117.708 246.38 117.384 246.448 117.096 246.584C116.816 246.72 116.576 246.916 116.376 247.172C116.184 247.42 116.036 247.72 115.932 248.072C115.828 248.416 115.776 248.804 115.776 249.236V250.484C115.776 251.348 115.976 252.024 116.376 252.512C116.776 253 117.34 253.244 118.068 253.244C118.604 253.244 119.052 253.108 119.412 252.836C119.772 252.556 120.036 252.188 120.204 251.732L121.008 252.236C120.744 252.828 120.364 253.296 119.868 253.64C119.372 253.976 118.772 254.144 118.068 254.144ZM124.813 254.144C124.397 254.144 124.017 254.068 123.673 253.916C123.329 253.764 123.033 253.548 122.785 253.268C122.545 252.98 122.357 252.64 122.221 252.248C122.085 251.848 122.017 251.4 122.017 250.904C122.017 250.416 122.085 249.972 122.221 249.572C122.357 249.172 122.545 248.832 122.785 248.552C123.033 248.264 123.329 248.044 123.673 247.892C124.017 247.74 124.397 247.664 124.813 247.664C125.229 247.664 125.605 247.74 125.941 247.892C126.285 248.044 126.581 248.264 126.829 248.552C127.077 248.832 127.269 249.172 127.405 249.572C127.541 249.972 127.609 250.416 127.609 250.904C127.609 251.4 127.541 251.848 127.405 252.248C127.269 252.64 127.077 252.98 126.829 253.268C126.581 253.548 126.285 253.764 125.941 253.916C125.605 254.068 125.229 254.144 124.813 254.144ZM124.813 253.292C125.333 253.292 125.757 253.132 126.085 252.812C126.413 252.492 126.577 252.004 126.577 251.348V250.46C126.577 249.804 126.413 249.316 126.085 248.996C125.757 248.676 125.333 248.516 124.813 248.516C124.293 248.516 123.869 248.676 123.541 248.996C123.213 249.316 123.049 249.804 123.049 250.46V251.348C123.049 252.004 123.213 252.492 123.541 252.812C123.869 253.132 124.293 253.292 124.813 253.292ZM129.188 254V247.808H130.148V248.816H130.196C130.348 248.464 130.56 248.184 130.832 247.976C131.112 247.768 131.484 247.664 131.948 247.664C132.588 247.664 133.092 247.872 133.46 248.288C133.836 248.696 134.024 249.276 134.024 250.028V254H133.064V250.196C133.064 249.084 132.596 248.528 131.66 248.528C131.468 248.528 131.28 248.552 131.096 248.6C130.92 248.648 130.76 248.72 130.616 248.816C130.472 248.912 130.356 249.036 130.268 249.188C130.188 249.332 130.148 249.504 130.148 249.704V254H129.188ZM137.376 254C137.04 254 136.784 253.908 136.608 253.724C136.44 253.532 136.356 253.284 136.356 252.98V248.648H135.336V247.808H135.912C136.12 247.808 136.26 247.768 136.332 247.688C136.412 247.6 136.452 247.452 136.452 247.244V246.092H137.316V247.808H138.672V248.648H137.316V253.16H138.576V254H137.376ZM142.496 254.144C142.072 254.144 141.688 254.068 141.344 253.916C141.008 253.764 140.716 253.548 140.468 253.268C140.228 252.98 140.04 252.64 139.904 252.248C139.776 251.848 139.712 251.4 139.712 250.904C139.712 250.416 139.776 249.972 139.904 249.572C140.04 249.172 140.228 248.832 140.468 248.552C140.716 248.264 141.008 248.044 141.344 247.892C141.688 247.74 142.072 247.664 142.496 247.664C142.912 247.664 143.284 247.74 143.612 247.892C143.94 248.044 144.22 248.256 144.452 248.528C144.684 248.792 144.86 249.108 144.98 249.476C145.108 249.844 145.172 250.248 145.172 250.688V251.144H140.72V251.432C140.72 251.696 140.76 251.944 140.84 252.176C140.928 252.4 141.048 252.596 141.2 252.764C141.36 252.932 141.552 253.064 141.776 253.16C142.008 253.256 142.268 253.304 142.556 253.304C142.948 253.304 143.288 253.212 143.576 253.028C143.872 252.844 144.1 252.58 144.26 252.236L144.944 252.728C144.744 253.152 144.432 253.496 144.008 253.76C143.584 254.016 143.08 254.144 142.496 254.144ZM142.496 248.468C142.232 248.468 141.992 248.516 141.776 248.612C141.56 248.7 141.372 248.828 141.212 248.996C141.06 249.164 140.94 249.364 140.852 249.596C140.764 249.82 140.72 250.068 140.72 250.34V250.424H144.14V250.292C144.14 249.74 143.988 249.3 143.684 248.972C143.388 248.636 142.992 248.468 142.496 248.468ZM146.754 254V247.808H147.714V248.816H147.762C147.914 248.464 148.126 248.184 148.398 247.976C148.678 247.768 149.05 247.664 149.514 247.664C150.154 247.664 150.658 247.872 151.026 248.288C151.402 248.696 151.59 249.276 151.59 250.028V254H150.63V250.196C150.63 249.084 150.162 248.528 149.226 248.528C149.034 248.528 148.846 248.552 148.662 248.6C148.486 248.648 148.326 248.72 148.182 248.816C148.038 248.912 147.922 249.036 147.834 249.188C147.754 249.332 147.714 249.504 147.714 249.704V254H146.754ZM154.943 254C154.607 254 154.351 253.908 154.175 253.724C154.007 253.532 153.923 253.284 153.923 252.98V248.648H152.903V247.808H153.479C153.687 247.808 153.827 247.768 153.899 247.688C153.979 247.6 154.019 247.452 154.019 247.244V246.092H154.883V247.808H156.239V248.648H154.883V253.16H156.143V254H154.943ZM160.618 254V247.808H161.578V248.816H161.626C161.698 248.656 161.778 248.508 161.866 248.372C161.962 248.228 162.074 248.104 162.202 248C162.338 247.896 162.494 247.816 162.67 247.76C162.846 247.696 163.054 247.664 163.294 247.664C163.702 247.664 164.078 247.764 164.422 247.964C164.766 248.156 165.022 248.476 165.19 248.924H165.214C165.326 248.588 165.534 248.296 165.838 248.048C166.15 247.792 166.57 247.664 167.098 247.664C167.73 247.664 168.222 247.872 168.574 248.288C168.934 248.696 169.114 249.276 169.114 250.028V254H168.154V250.196C168.154 249.644 168.046 249.228 167.83 248.948C167.614 248.668 167.27 248.528 166.798 248.528C166.606 248.528 166.422 248.552 166.246 248.6C166.078 248.648 165.926 248.72 165.79 248.816C165.654 248.912 165.546 249.036 165.466 249.188C165.386 249.332 165.346 249.504 165.346 249.704V254H164.386V250.196C164.386 249.644 164.278 249.228 164.062 248.948C163.846 248.668 163.51 248.528 163.054 248.528C162.862 248.528 162.678 248.552 162.502 248.6C162.326 248.648 162.17 248.72 162.034 248.816C161.898 248.912 161.786 249.036 161.698 249.188C161.618 249.332 161.578 249.504 161.578 249.704V254H160.618ZM173.434 254.144C173.018 254.144 172.638 254.068 172.294 253.916C171.95 253.764 171.654 253.548 171.406 253.268C171.166 252.98 170.978 252.64 170.842 252.248C170.706 251.848 170.638 251.4 170.638 250.904C170.638 250.416 170.706 249.972 170.842 249.572C170.978 249.172 171.166 248.832 171.406 248.552C171.654 248.264 171.95 248.044 172.294 247.892C172.638 247.74 173.018 247.664 173.434 247.664C173.85 247.664 174.226 247.74 174.562 247.892C174.906 248.044 175.202 248.264 175.45 248.552C175.698 248.832 175.89 249.172 176.026 249.572C176.162 249.972 176.23 250.416 176.23 250.904C176.23 251.4 176.162 251.848 176.026 252.248C175.89 252.64 175.698 252.98 175.45 253.268C175.202 253.548 174.906 253.764 174.562 253.916C174.226 254.068 173.85 254.144 173.434 254.144ZM173.434 253.292C173.954 253.292 174.378 253.132 174.706 252.812C175.034 252.492 175.198 252.004 175.198 251.348V250.46C175.198 249.804 175.034 249.316 174.706 248.996C174.378 248.676 173.954 248.516 173.434 248.516C172.914 248.516 172.49 248.676 172.162 248.996C171.834 249.316 171.67 249.804 171.67 250.46V251.348C171.67 252.004 171.834 252.492 172.162 252.812C172.49 253.132 172.914 253.292 173.434 253.292ZM181.769 252.992H181.721C181.345 253.76 180.741 254.144 179.909 254.144C179.525 254.144 179.177 254.068 178.865 253.916C178.553 253.764 178.285 253.548 178.061 253.268C177.845 252.988 177.677 252.648 177.557 252.248C177.445 251.848 177.389 251.4 177.389 250.904C177.389 250.408 177.445 249.96 177.557 249.56C177.677 249.16 177.845 248.82 178.061 248.54C178.285 248.26 178.553 248.044 178.865 247.892C179.177 247.74 179.525 247.664 179.909 247.664C180.341 247.664 180.709 247.76 181.013 247.952C181.325 248.136 181.561 248.424 181.721 248.816H181.769V245.12H182.729V254H181.769V252.992ZM180.173 253.28C180.389 253.28 180.593 253.252 180.785 253.196C180.985 253.14 181.157 253.06 181.301 252.956C181.445 252.844 181.557 252.712 181.637 252.56C181.725 252.4 181.769 252.22 181.769 252.02V249.716C181.769 249.548 181.725 249.392 181.637 249.248C181.557 249.096 181.445 248.968 181.301 248.864C181.157 248.76 180.985 248.68 180.785 248.624C180.593 248.56 180.389 248.528 180.173 248.528C179.629 248.528 179.201 248.7 178.889 249.044C178.577 249.38 178.421 249.824 178.421 250.376V251.432C178.421 251.984 178.577 252.432 178.889 252.776C179.201 253.112 179.629 253.28 180.173 253.28ZM187.098 254.144C186.674 254.144 186.29 254.068 185.946 253.916C185.61 253.764 185.318 253.548 185.07 253.268C184.83 252.98 184.642 252.64 184.506 252.248C184.378 251.848 184.314 251.4 184.314 250.904C184.314 250.416 184.378 249.972 184.506 249.572C184.642 249.172 184.83 248.832 185.07 248.552C185.318 248.264 185.61 248.044 185.946 247.892C186.29 247.74 186.674 247.664 187.098 247.664C187.514 247.664 187.886 247.74 188.214 247.892C188.542 248.044 188.822 248.256 189.054 248.528C189.286 248.792 189.462 249.108 189.582 249.476C189.71 249.844 189.774 250.248 189.774 250.688V251.144H185.322V251.432C185.322 251.696 185.362 251.944 185.442 252.176C185.53 252.4 185.65 252.596 185.802 252.764C185.962 252.932 186.154 253.064 186.378 253.16C186.61 253.256 186.87 253.304 187.158 253.304C187.55 253.304 187.89 253.212 188.178 253.028C188.474 252.844 188.702 252.58 188.862 252.236L189.546 252.728C189.346 253.152 189.034 253.496 188.61 253.76C188.186 254.016 187.682 254.144 187.098 254.144ZM187.098 248.468C186.834 248.468 186.594 248.516 186.378 248.612C186.162 248.7 185.974 248.828 185.814 248.996C185.662 249.164 185.542 249.364 185.454 249.596C185.366 249.82 185.322 250.068 185.322 250.34V250.424H188.742V250.292C188.742 249.74 188.59 249.3 188.286 248.972C187.99 248.636 187.594 248.468 187.098 248.468ZM191.356 254V247.808H192.316V248.948H192.376C192.488 248.652 192.688 248.388 192.976 248.156C193.264 247.924 193.66 247.808 194.164 247.808H194.536V248.768H193.972C193.452 248.768 193.044 248.868 192.748 249.068C192.46 249.26 192.316 249.504 192.316 249.8V254H191.356ZM200.215 254C199.855 254 199.595 253.904 199.435 253.712C199.283 253.52 199.187 253.28 199.147 252.992H199.087C198.951 253.376 198.727 253.664 198.415 253.856C198.103 254.048 197.731 254.144 197.299 254.144C196.643 254.144 196.131 253.976 195.763 253.64C195.403 253.304 195.223 252.848 195.223 252.272C195.223 251.688 195.435 251.24 195.859 250.928C196.291 250.616 196.959 250.46 197.863 250.46H199.087V249.848C199.087 249.408 198.967 249.072 198.727 248.84C198.487 248.608 198.119 248.492 197.623 248.492C197.247 248.492 196.931 248.576 196.675 248.744C196.427 248.912 196.219 249.136 196.051 249.416L195.475 248.876C195.643 248.54 195.911 248.256 196.279 248.024C196.647 247.784 197.111 247.664 197.671 247.664C198.423 247.664 199.007 247.848 199.423 248.216C199.839 248.584 200.047 249.096 200.047 249.752V253.16H200.755V254H200.215ZM197.455 253.328C197.695 253.328 197.915 253.3 198.115 253.244C198.315 253.188 198.487 253.108 198.631 253.004C198.775 252.9 198.887 252.78 198.967 252.644C199.047 252.508 199.087 252.36 199.087 252.2V251.18H197.815C197.263 251.18 196.859 251.26 196.603 251.42C196.355 251.58 196.231 251.812 196.231 252.116V252.368C196.231 252.672 196.339 252.908 196.555 253.076C196.779 253.244 197.079 253.328 197.455 253.328ZM203.493 254C203.157 254 202.901 253.908 202.725 253.724C202.557 253.532 202.473 253.284 202.473 252.98V248.648H201.453V247.808H202.029C202.237 247.808 202.377 247.768 202.449 247.688C202.529 247.6 202.569 247.452 202.569 247.244V246.092H203.433V247.808H204.789V248.648H203.433V253.16H204.693V254H203.493ZM206.812 246.356C206.604 246.356 206.452 246.308 206.356 246.212C206.268 246.108 206.224 245.976 206.224 245.816V245.66C206.224 245.5 206.268 245.372 206.356 245.276C206.452 245.172 206.604 245.12 206.812 245.12C207.02 245.12 207.168 245.172 207.256 245.276C207.352 245.372 207.4 245.5 207.4 245.66V245.816C207.4 245.976 207.352 246.108 207.256 246.212C207.168 246.308 207.02 246.356 206.812 246.356ZM206.332 247.808H207.292V254H206.332V247.808ZM211.672 254.144C211.256 254.144 210.876 254.068 210.532 253.916C210.188 253.764 209.892 253.548 209.644 253.268C209.404 252.98 209.216 252.64 209.08 252.248C208.944 251.848 208.876 251.4 208.876 250.904C208.876 250.416 208.944 249.972 209.08 249.572C209.216 249.172 209.404 248.832 209.644 248.552C209.892 248.264 210.188 248.044 210.532 247.892C210.876 247.74 211.256 247.664 211.672 247.664C212.088 247.664 212.464 247.74 212.8 247.892C213.144 248.044 213.44 248.264 213.688 248.552C213.936 248.832 214.128 249.172 214.264 249.572C214.4 249.972 214.468 250.416 214.468 250.904C214.468 251.4 214.4 251.848 214.264 252.248C214.128 252.64 213.936 252.98 213.688 253.268C213.44 253.548 213.144 253.764 212.8 253.916C212.464 254.068 212.088 254.144 211.672 254.144ZM211.672 253.292C212.192 253.292 212.616 253.132 212.944 252.812C213.272 252.492 213.436 252.004 213.436 251.348V250.46C213.436 249.804 213.272 249.316 212.944 248.996C212.616 248.676 212.192 248.516 211.672 248.516C211.152 248.516 210.728 248.676 210.4 248.996C210.072 249.316 209.908 249.804 209.908 250.46V251.348C209.908 252.004 210.072 252.492 210.4 252.812C210.728 253.132 211.152 253.292 211.672 253.292ZM216.047 254V247.808H217.007V248.816H217.055C217.207 248.464 217.419 248.184 217.691 247.976C217.971 247.768 218.343 247.664 218.807 247.664C219.447 247.664 219.951 247.872 220.319 248.288C220.695 248.696 220.883 249.276 220.883 250.028V254H219.923V250.196C219.923 249.084 219.455 248.528 218.519 248.528C218.327 248.528 218.139 248.552 217.955 248.6C217.779 248.648 217.619 248.72 217.475 248.816C217.331 248.912 217.215 249.036 217.127 249.188C217.047 249.332 217.007 249.504 217.007 249.704V254H216.047Z" fill="#1A1A1A"/>
    </g>
  </g>
  <path d="M429.166 0.5V249.5H0.833374V0.5H429.166Z" stroke="#ECECEC"/>
  <defs>
    <filter id="filter0_d_4092_171171" x="29.9999" y="-8" width="389" height="342" filterUnits="userSpaceOnUse" color-interpolation-filters="sRGB">
      <feFlood flood-opacity="0" result="BackgroundImageFix"/>
      <feColorMatrix in="SourceAlpha" type="matrix" values="0 0 0 0 0 0 0 0 0 0 0 0 0 0 0 0 0 0 127 0" result="hardAlpha"/>
      <feOffset dx="10" dy="10"/>
      <feGaussianBlur stdDeviation="25"/>
      <feComposite in2="hardAlpha" operator="out"/>
      <feColorMatrix type="matrix" values="0 0 0 0 0 0 0 0 0 0 0 0 0 0 0 0 0 0 0.08 0"/>
      <feBlend mode="normal" in2="BackgroundImageFix" result="effect1_dropShadow_4092_171171"/>
      <feBlend mode="normal" in="SourceGraphic" in2="effect1_dropShadow_4092_171171" result="shape"/>
    </filter>
    <clipPath id="clip0_4092_171171">
      <path d="M0.333374 0H429.667V250H0.333374V0Z" fill="white"/>
    </clipPath>
    <clipPath id="clip1_4092_171171">
      <rect width="16" height="16" fill="white" transform="translate(89.9999 105)"/>
    </clipPath>
    <clipPath id="clip2_4092_171171">
      <rect width="16" height="16" fill="white" transform="translate(89.9999 139)"/>
    </clipPath>
    <clipPath id="clip3_4092_171171">
      <rect width="16" height="16" fill="white" transform="translate(89.9999 207)"/>
    </clipPath>
    <clipPath id="clip4_4092_171171">
      <rect width="16" height="16" fill="white" transform="translate(89.9999 241)"/>
    </clipPath>
  </defs>
</svg>