<svg width="16" height="16" viewBox="0 0 16 16" fill="none" xmlns="http://www.w3.org/2000/svg">
<g clip-path="url(#clip0_2231_47452)">
<path d="M6.66663 10.667L7.66663 11.667" stroke="#7857FC" stroke-width="1.33333" stroke-linecap="round" stroke-linejoin="round"/>
<path d="M9.33337 5.33301L8.33337 4.33301" stroke="#7857FC" stroke-width="1.33333" stroke-linecap="round" stroke-linejoin="round"/>
<path d="M10 1.33301C8.80133 2.66501 8.32133 3.99634 8.12866 5.32834" stroke="#7857FC" stroke-width="1.33333" stroke-linecap="round" stroke-linejoin="round"/>
<path d="M11 7L11.6667 7.66667" stroke="#7857FC" stroke-width="1.33333" stroke-linecap="round" stroke-linejoin="round"/>
<path d="M11.3333 3.9996L9.40601 2.07227" stroke="#7857FC" stroke-width="1.33333" stroke-linecap="round" stroke-linejoin="round"/>
<path d="M1.33337 10C5.77804 6 10.222 10 14.6667 6" stroke="#7857FC" stroke-width="1.33333" stroke-linecap="round" stroke-linejoin="round"/>
<path d="M13.3334 6L13.9274 6.594" stroke="#7857FC" stroke-width="1.33333" stroke-linecap="round" stroke-linejoin="round"/>
<path d="M2.07263 9.40625L2.66663 10.0002" stroke="#7857FC" stroke-width="1.33333" stroke-linecap="round" stroke-linejoin="round"/>
<path d="M4.33337 8.33301L5.00004 8.99967" stroke="#7857FC" stroke-width="1.33333" stroke-linecap="round" stroke-linejoin="round"/>
<path d="M4.66663 12L6.59396 13.9273" stroke="#7857FC" stroke-width="1.33333" stroke-linecap="round" stroke-linejoin="round"/>
<path d="M6 14.6662C7.19867 13.3342 7.67867 12.0029 7.87133 10.6709" stroke="#7857FC" stroke-width="1.33333" stroke-linecap="round" stroke-linejoin="round"/>
</g>
<defs>
<clipPath id="clip0_2231_47452">
<rect width="16" height="16" fill="white"/>
</clipPath>
</defs>
</svg>
