<svg width="22" height="22" viewBox="0 0 22 22" fill="none" xmlns="http://www.w3.org/2000/svg">
    <g clip-path="url(#clip0_2367_98822)">
        <path fill-rule="evenodd" clip-rule="evenodd" d="M7.24224 0H14.6921L21.2706 6.57723V19.2099C21.2706 20.7451 20.0145 22 18.4805 22H7.24224C5.70825 22 4.45215 20.7451 4.45215 19.2099V2.79009C4.45219 1.25482 5.7083 0 7.24224 0Z" fill="#E85858"/>
        <path fill-rule="evenodd" clip-rule="evenodd" d="M14.6931 0L21.2716 6.57723H15.4035C15.0125 6.57723 14.6931 6.25913 14.6931 5.86807V0ZM1.33989 9.36732H16.4923C16.828 9.36732 17.1047 9.64266 17.1047 9.97966V15.5384C17.1047 15.8754 16.828 16.152 16.4923 16.152H1.33989C1.00293 16.152 0.727539 15.8754 0.727539 15.5384V9.97966C0.727582 9.64266 1.00293 9.36732 1.33989 9.36732Z" fill="#C0271C"/>
        <path d="M2.91309 11H3.64551L4.91895 14.1094H4.96582L6.23926 11H6.97168V15H6.39746V12.1055H6.36035L5.18066 14.9941H4.7041L3.52441 12.1035H3.4873V15H2.91309V11ZM7.84912 15V11H9.2749C9.5861 11 9.84391 11.0566 10.0483 11.1699C10.2528 11.2832 10.4058 11.4382 10.5073 11.6348C10.6089 11.8301 10.6597 12.0501 10.6597 12.2949C10.6597 12.541 10.6082 12.7624 10.5054 12.959C10.4038 13.1543 10.2502 13.3092 10.0444 13.4238C9.84001 13.5371 9.58285 13.5938 9.27295 13.5938H8.29248V13.082H9.21826C9.41488 13.082 9.57438 13.0482 9.69678 12.9805C9.81917 12.9115 9.90902 12.8177 9.96631 12.6992C10.0236 12.5807 10.0522 12.446 10.0522 12.2949C10.0522 12.1439 10.0236 12.0098 9.96631 11.8926C9.90902 11.7754 9.81852 11.6836 9.69482 11.6172C9.57243 11.5508 9.41097 11.5176 9.21045 11.5176H8.45264V15H7.84912ZM11.2285 14.2188V13.7305L12.957 11H13.3418V11.7187H13.0977L11.8613 13.6758V13.707H14.2305V14.2188H11.2285ZM13.125 15V14.0703L13.1289 13.8477V11H13.7012V15H13.125Z" fill="white"/>
    </g>
    <defs>
    <clipPath id="clip0_2367_98822">
    <rect width="22" height="22" fill="white"/>
    </clipPath>
    </defs>
</svg>
    