<svg width="20" height="20" viewBox="0 0 20 20" fill="none" xmlns="http://www.w3.org/2000/svg">
  <path opacity="0.4" d="M16.0615 6.21118C16.6229 6.38845 17.3918 7.21574 17.7018 5.50208H18V18H2V16.9792C4.37692 16.5798 4.33077 10.6329 5.21538 12.629C6.13251 14.6985 7.05385 7.48185 8.36923 2.57703C9.22847 -0.626909 10.1815 10.4574 11.1289 12.629C12.0762 14.8006 13.4615 15.3372 14.2692 11.9199C15.1322 8.26861 15.3598 5.98958 16.0615 6.21118Z" fill="url(#paint0_linear_215_155631)"/>
  <path d="M2 16.9793C4.37692 16.5798 4.33077 10.6329 5.21538 12.629C6.13251 14.6985 7.05385 7.48185 8.36923 2.57703C9.22847 -0.626908 10.1815 10.4574 11.1289 12.629C12.0762 14.8006 13.4615 15.3372 14.2692 11.9199C15.1322 8.26861 15.3598 5.98958 16.0615 6.21118C16.6229 6.38845 17.3918 7.21574 17.7018 5.50208H18" stroke="#D92D20" stroke-width="0.4" stroke-linecap="round"/>
  <defs>
    <linearGradient id="paint0_linear_215_155631" x1="18.4474" y1="18" x2="0.427216" y2="16.4088" gradientUnits="userSpaceOnUse">
      <stop offset="0.0001" stop-color="#D92D20"/>
      <stop offset="1" stop-color="#D92D20" stop-opacity="0"/>
    </linearGradient>
  </defs>
</svg>