<svg width="40" height="40" viewBox="0 0 40 40" fill="none" xmlns="http://www.w3.org/2000/svg">
<g clip-path="url(#clip0_1_10877)">
<rect width="40" height="40" rx="9.33333" fill="#684BE3"/>
<circle cx="5.24833" cy="14.0613" r="27.7207" transform="rotate(-0.403168 5.24833 14.0613)" fill="url(#paint0_linear_1_10877)"/>
<circle cx="20.0603" cy="33.8499" r="27.6921" transform="rotate(-0.403168 20.0603 33.8499)" fill="url(#paint1_linear_1_10877)" stroke="url(#paint2_radial_1_10877)" stroke-width="0.0572353"/>
<path d="M27.9998 20.0001C27.9998 24.4183 24.418 28.0001 19.9998 28.0001C15.5815 28.0001 11.9998 24.4183 11.9998 20.0001C11.9998 15.5818 15.5815 12.0001 19.9998 12.0001M24.4442 20.0001C24.4442 22.4547 22.4544 24.4445 19.9998 24.4445C17.5452 24.4445 15.5553 22.4547 15.5553 20.0001C15.5553 17.5455 17.5452 15.5556 19.9998 15.5556M22.4512 17.6459L25.9703 18.0155L27.8779 15.3449L25.5888 14.5818L24.8257 12.2927L22.1551 14.2003L22.4512 17.6459ZM22.4512 17.6459L19.9998 20" stroke="white" stroke-width="1.33333" stroke-linecap="round" stroke-linejoin="round"/>
</g>
<defs>
<linearGradient id="paint0_linear_1_10877" x1="5.24833" y1="-13.6594" x2="5.24833" y2="41.782" gradientUnits="userSpaceOnUse">
<stop stop-color="#9D94C9" stop-opacity="0.32"/>
<stop offset="1" stop-color="white" stop-opacity="0.2"/>
</linearGradient>
<linearGradient id="paint1_linear_1_10877" x1="20.0603" y1="6.12921" x2="20.0603" y2="61.5706" gradientUnits="userSpaceOnUse">
<stop stop-color="#8775B7" stop-opacity="0.5"/>
<stop offset="1" stop-color="white" stop-opacity="0.08"/>
</linearGradient>
<radialGradient id="paint2_radial_1_10877" cx="0" cy="0" r="1" gradientUnits="userSpaceOnUse" gradientTransform="translate(20.0603 33.8499) rotate(89.968) scale(57.4283)">
<stop offset="0.046875" stop-color="#CF6BE8" stop-opacity="0.05"/>
<stop offset="1" stop-color="#CF6BE8"/>
</radialGradient>
<clipPath id="clip0_1_10877">
<rect width="40" height="40" rx="9.33333" fill="white"/>
</clipPath>
</defs>
</svg>
