<svg width="20" height="20" viewBox="0 0 20 20" fill="none" xmlns="http://www.w3.org/2000/svg">
<path d="M12.5 4.16663V15.8333M7.5 4.16663V15.8333M3.33333 4.16663H16.6667C16.8877 4.16663 17.0996 4.25442 17.2559 4.4107C17.4122 4.56698 17.5 4.77895 17.5 4.99996V15C17.5 15.221 17.4122 15.4329 17.2559 15.5892C17.0996 15.7455 16.8877 15.8333 16.6667 15.8333H3.33333C3.11232 15.8333 2.90036 15.7455 2.74408 15.5892C2.5878 15.4329 2.5 15.221 2.5 15V4.99996C2.5 4.77895 2.5878 4.56698 2.74408 4.4107C2.90036 4.25442 3.11232 4.16663 3.33333 4.16663Z" stroke="#666666" stroke-width="1.25" stroke-linecap="round" stroke-linejoin="round"/>
</svg>
