<svg width="24" height="24" viewBox="0 0 24 24" fill="none" xmlns="http://www.w3.org/2000/svg">
<path d="M23.8364 19.0629C24.027 19.6098 23.9813 20.1923 23.7271 20.6987C23.5441 21.0684 23.2824 21.3546 22.9622 21.6103C22.5759 21.9141 22.0956 22.1724 21.5161 22.4206C20.8249 22.7143 19.9812 22.9903 19.5948 23.0916C18.6062 23.3474 17.6558 23.5094 16.6926 23.517C15.3152 23.5297 14.1283 23.2056 13.2846 22.3775C12.8475 22.4307 12.4053 22.4611 11.9605 22.4611C11.5387 22.4611 11.1219 22.4358 10.7076 22.3852C9.86136 23.2081 8.6796 23.5297 7.30723 23.517C6.34406 23.5094 5.39357 23.3474 4.40245 23.0916C4.0187 22.9903 3.17496 22.7143 2.48371 22.4206C1.90427 22.1724 1.42395 21.9141 1.0402 21.6103C0.717442 21.3546 0.45568 21.0684 0.272701 20.6987C0.0211038 20.1923 -0.0271825 19.6098 0.165962 19.0629C-0.0119343 18.6451 -0.0576792 18.1665 0.0820968 17.6373C0.145632 17.3968 0.249829 17.1739 0.38198 16.9764C0.354025 16.8726 0.331152 16.7662 0.315904 16.6497C0.219332 15.9559 0.460763 15.3229 0.915672 14.8316C1.13931 14.586 1.38074 14.4163 1.63234 14.3075C1.44682 13.5225 1.35025 12.7147 1.35025 11.8892C1.35025 6.05003 6.10008 1.31738 11.9605 1.31738C13.9733 1.31738 15.8565 1.87446 17.4626 2.84682C17.7523 3.02408 18.037 3.21399 18.3089 3.41656C18.4436 3.51785 18.5783 3.62167 18.7079 3.73055C18.84 3.8369 18.9696 3.94832 19.0942 4.06227C19.4703 4.40411 19.8236 4.77128 20.1463 5.16377C20.2556 5.29291 20.3598 5.42711 20.4614 5.56385C20.6673 5.8348 20.8579 6.11587 21.0333 6.40706C21.3001 6.84262 21.5339 7.29838 21.7372 7.77189C21.8719 8.08846 21.9888 8.41255 22.093 8.74428C22.248 9.2406 22.3675 9.75209 22.4488 10.2788C22.4742 10.4535 22.4971 10.6307 22.5149 10.808C22.5505 11.1625 22.5708 11.5221 22.5708 11.8892C22.5708 12.7046 22.4742 13.5048 22.2938 14.2771C22.5733 14.386 22.8376 14.5632 23.0842 14.8316C23.5391 15.3229 23.7805 15.9584 23.6839 16.6523C23.6687 16.7662 23.6458 16.8726 23.6179 16.9764C23.75 17.1739 23.8542 17.3968 23.9177 17.6373C24.0575 18.1665 24.0118 18.6451 23.8364 19.0629Z" fill="white"/>
<path d="M20.8244 11.9616C20.8244 7.11786 16.8736 3.19119 12.0002 3.19119C7.12667 3.19119 3.1759 7.11786 3.1759 11.9616C3.1759 16.8054 7.12667 20.7321 12.0002 20.7321C16.8736 20.7321 20.8244 16.8054 20.8244 11.9616ZM2.16016 11.9616C2.16016 6.5603 6.56569 2.18164 12.0002 2.18164C17.4346 2.18164 21.8402 6.5603 21.8402 11.9616C21.8402 17.363 17.4346 21.7416 12.0002 21.7416C6.56569 21.7416 2.16016 17.363 2.16016 11.9616Z" fill="#1A1A1A"/>
<path d="M11.9996 20.7816C16.9039 20.7816 20.8796 16.8327 20.8796 11.9616C20.8796 7.09047 16.9039 3.1416 11.9996 3.1416C7.09532 3.1416 3.11963 7.09047 3.11963 11.9616C3.11963 16.8327 7.09532 20.7816 11.9996 20.7816Z" fill="white"/>
<path d="M9.70554 20.718C10.4059 19.7073 10.3563 18.9488 9.39532 18.0037C8.43436 17.0589 7.87501 15.6766 7.87501 15.6766C7.87501 15.6766 7.66607 14.8738 7.19015 14.9476C6.71428 15.0215 6.36484 16.2213 7.3617 16.9552C8.35852 17.689 7.16317 18.1875 6.77965 17.4984C6.39613 16.8092 5.34892 15.0375 4.80585 14.6987C4.263 14.3599 3.88076 14.5497 4.00876 15.2481C4.13677 15.9466 6.40708 17.6394 6.18618 18.0057C5.96529 18.3718 5.18682 17.5752 5.18682 17.5752C5.18682 17.5752 2.75082 15.3939 2.22045 15.9623C1.6901 16.5308 2.62281 17.0071 3.95201 17.7989C5.28148 18.5904 5.38453 18.7995 5.19594 19.099C5.00711 19.3985 2.07285 16.9642 1.79724 17.9962C1.52188 19.0282 4.79183 19.3277 4.59002 20.0401C4.38821 20.7528 2.28662 18.6916 1.85679 19.4947C1.4267 20.298 4.82236 21.2419 4.84986 21.2489C5.94671 21.5289 8.73239 22.1221 9.70554 20.718Z" fill="white"/>
<path d="M4.36761 13.5586C3.95869 13.5586 3.59321 13.7255 3.33837 14.0282C3.18076 14.2157 3.01608 14.5179 3.00269 14.9705C2.8312 14.9215 2.66627 14.8941 2.5122 14.8941C2.1207 14.8941 1.7671 15.0432 1.51705 15.3141C1.19578 15.6617 1.05307 16.0889 1.1152 16.5164C1.14476 16.7199 1.2132 16.9024 1.3155 17.0713C1.0998 17.2448 0.940929 17.4862 0.864144 17.7766C0.804033 18.0043 0.742406 18.4784 1.06418 18.9669C1.04373 18.9988 1.02453 19.0319 1.0066 19.0658C0.813125 19.4307 0.80075 19.8431 0.971491 20.2271C1.23038 20.8092 1.87368 21.2678 3.12292 21.76C3.90009 22.0662 4.61109 22.262 4.6174 22.2637C5.64486 22.5285 6.57409 22.6631 7.37853 22.6631C8.85712 22.6631 9.91566 22.213 10.5249 21.3255C11.5054 19.8963 11.3652 18.5891 10.0965 17.3291C9.39433 16.6318 8.92758 15.6037 8.83033 15.3781C8.63435 14.7099 8.11605 13.9672 7.25454 13.9672H7.2543C7.18177 13.9672 7.10853 13.973 7.03633 13.9843C6.65896 14.0432 6.3291 14.2592 6.09347 14.5839C5.83912 14.2697 5.59211 14.0197 5.36857 13.8786C5.03161 13.6663 4.69494 13.5586 4.36761 13.5586ZM4.36761 14.5626C4.49642 14.5626 4.65377 14.617 4.82728 14.7265C5.36603 15.0661 6.40561 16.8419 6.78625 17.5327C6.91379 17.7641 7.13181 17.862 7.32803 17.862C7.7175 17.862 8.02158 17.4772 7.36365 16.9882C6.37432 16.2525 6.72136 15.05 7.19368 14.976C7.21437 14.9727 7.23481 14.9712 7.25454 14.9712C7.6839 14.9712 7.87336 15.7066 7.87336 15.7066C7.87336 15.7066 8.42848 17.0922 9.38224 18.0392C10.3359 18.9864 10.3852 19.7467 9.69011 20.7597C9.21601 21.4505 8.30853 21.5406 7.37853 21.5406C6.41397 21.5406 5.42344 21.3716 4.86928 21.2288C4.84201 21.2218 1.47361 20.3388 1.90046 19.5336C1.97219 19.3983 2.0904 19.3441 2.23916 19.3441C2.84029 19.3441 3.93369 20.2332 4.40373 20.2332C4.5088 20.2332 4.5871 20.1524 4.6174 20.044C4.82656 19.2957 1.56782 19.066 1.84136 18.0317C1.8896 17.8487 2.02043 17.7744 2.20431 17.7746C2.99866 17.7746 4.78082 19.1629 5.1544 19.1629C5.18291 19.1629 5.20336 19.1546 5.21449 19.1371C5.40165 18.8369 5.31544 18.5924 3.99625 17.7991C2.67706 17.0054 1.73477 16.5628 2.26139 15.9931C2.322 15.9272 2.40788 15.8982 2.5122 15.8982C3.31311 15.8984 5.20537 17.6097 5.20537 17.6097C5.20537 17.6097 5.71609 18.1376 6.02502 18.1376C6.09597 18.1376 6.15635 18.1097 6.19725 18.0409C6.41622 17.674 4.16328 15.9772 4.03623 15.2772C3.9501 14.8028 4.09659 14.5626 4.36761 14.5626Z" fill="#1A1A1A"/>
<path d="M14.2511 20.718C13.5508 19.7073 13.6003 18.9488 14.5613 18.0037C15.5223 17.0589 16.0817 15.6766 16.0817 15.6766C16.0817 15.6766 16.2906 14.8738 16.7665 14.9476C17.2424 15.0215 17.5918 16.2213 16.595 16.9552C15.5981 17.689 16.7934 18.1875 17.177 17.4984C17.5605 16.8092 18.6077 15.0375 19.1508 14.6987C19.6937 14.3599 20.0759 14.5497 19.9479 15.2481C19.8198 15.9466 17.5495 17.6394 17.7704 18.0057C17.9913 18.3718 18.7698 17.5752 18.7698 17.5752C18.7698 17.5752 21.2058 15.3939 21.7362 15.9623C22.2666 16.5308 21.3338 17.0071 20.0046 17.7989C18.6751 18.5904 18.5721 18.7995 18.7607 19.099C18.9495 19.3985 21.8838 16.9642 22.1594 17.9962C22.4347 19.0282 19.1648 19.3277 19.3666 20.0401C19.5684 20.7528 21.67 18.6916 22.0998 19.4947C22.5299 20.298 19.1343 21.2419 19.1068 21.2489C18.0099 21.5289 15.2243 22.1221 14.2511 20.718Z" fill="white"/>
<path d="M19.5891 13.5586C19.998 13.5586 20.3634 13.7255 20.6183 14.0282C20.7759 14.2157 20.9406 14.5179 20.954 14.9705C21.1254 14.9215 21.2904 14.8941 21.4444 14.8941C21.8359 14.8941 22.1895 15.0432 22.4396 15.3141C22.7609 15.6617 22.9036 16.0889 22.8414 16.5164C22.8119 16.7199 22.7435 16.9024 22.6411 17.0713C22.8568 17.2448 23.0157 17.4862 23.0925 17.7766C23.1526 18.0043 23.2143 18.4784 22.8925 18.9669C22.9129 18.9988 22.9321 19.0319 22.9501 19.0658C23.1435 19.4307 23.1559 19.8431 22.9851 20.2271C22.7263 20.8092 22.083 21.2678 20.8337 21.76C20.0566 22.0662 19.3455 22.262 19.3393 22.2637C18.3118 22.5285 17.3825 22.6631 16.5781 22.6631C15.0995 22.6631 14.041 22.213 13.4318 21.3255C12.4513 19.8963 12.5915 18.5891 13.8602 17.3291C14.5623 16.6318 15.0291 15.6037 15.1263 15.3781C15.3223 14.7099 15.8406 13.9672 16.7021 13.9672H16.7024C16.7749 13.9672 16.8481 13.973 16.9203 13.9843C17.2977 14.0432 17.6275 14.2592 17.8632 14.5839C18.1176 14.2697 18.3646 14.0197 18.5881 13.8786C18.925 13.6663 19.2617 13.5586 19.5891 13.5586ZM19.5891 14.5626C19.4602 14.5626 19.3029 14.617 19.1294 14.7265C18.5906 15.0661 17.551 16.8419 17.1704 17.5327C17.0428 17.7641 16.8249 17.862 16.6286 17.862C16.2391 17.862 15.9351 17.4772 16.593 16.9882C17.5824 16.2525 17.2353 15.05 16.763 14.976C16.7423 14.9727 16.7218 14.9712 16.7021 14.9712C16.2727 14.9712 16.0833 15.7066 16.0833 15.7066C16.0833 15.7066 15.5282 17.0922 14.5744 18.0392C13.6207 18.9864 13.5714 19.7467 14.2665 20.7597C14.7406 21.4505 15.6481 21.5406 16.5781 21.5406C17.5427 21.5406 18.5332 21.3716 19.0874 21.2288C19.1146 21.2218 22.4831 20.3388 22.0562 19.5336C21.9844 19.3983 21.8663 19.3441 21.7175 19.3441C21.1164 19.3441 20.023 20.2332 19.5529 20.2332C19.4478 20.2332 19.3695 20.1524 19.3393 20.044C19.1301 19.2957 22.3888 19.066 22.1153 18.0317C22.0671 17.8487 21.9362 17.7744 21.7524 17.7746C20.958 17.7746 19.1758 19.1629 18.8023 19.1629C18.7737 19.1629 18.7533 19.1546 18.7421 19.1371C18.555 18.8369 18.6412 18.5924 19.9604 17.7991C21.2796 17.0054 22.2219 16.5628 21.6952 15.9931C21.6347 15.9272 21.5487 15.8982 21.4444 15.8982C20.6436 15.8984 18.7513 17.6097 18.7513 17.6097C18.7513 17.6097 18.2405 18.1376 17.9317 18.1376C17.8607 18.1376 17.8003 18.1097 17.7594 18.0409C17.5404 17.674 19.7934 15.9772 19.9204 15.2772C20.0066 14.8028 19.8601 14.5626 19.5891 14.5626Z" fill="#1A1A1A"/>
<path d="M15.3256 12.3041C15.3256 11.1682 13.8524 12.8994 12.0309 12.9072C10.2095 12.8995 8.73633 11.1683 8.73633 12.3041C8.73633 13.0572 9.09666 14.2821 10.0644 15.0252C10.257 14.3626 11.3152 13.8318 11.4664 13.9081C11.6818 14.0166 11.6697 14.3174 12.0309 14.5824C12.3922 14.3174 12.3801 14.0167 12.5954 13.9081C12.7468 13.8318 13.8048 14.3626 13.9974 15.0252C14.9651 14.2821 15.3255 13.0572 15.3255 12.3042L15.3256 12.3041Z" fill="#1A1A1A"/>
<path d="M11.7351 14.9871L11.9711 15.1602C11.4791 15.1481 11.0751 15.037 10.7429 14.8669C10.8269 14.7798 10.9338 14.6906 11.0591 14.6066C11.1383 14.5535 11.2149 14.5094 11.2822 14.4753C11.365 14.6172 11.4938 14.81 11.7351 14.9871ZM13.3191 14.8669C12.9868 15.0371 12.5827 15.1482 12.0906 15.1602L12.3266 14.9871C12.568 14.81 12.6968 14.6171 12.7796 14.4752C12.847 14.5094 12.9236 14.5535 13.0028 14.6066C13.1282 14.6906 13.2351 14.7798 13.3191 14.8669Z" stroke="#1A1A1A"/>
<path d="M17.9039 10.7258C18.3546 10.7258 18.7199 10.3604 18.7199 9.90975C18.7199 9.45908 18.3546 9.09375 17.9039 9.09375C17.4532 9.09375 17.0879 9.45908 17.0879 9.90975C17.0879 10.3604 17.4532 10.7258 17.9039 10.7258Z" fill="#1A1A1A"/>
<path d="M6.14413 10.7258C6.5948 10.7258 6.96013 10.3604 6.96013 9.90975C6.96013 9.45908 6.5948 9.09375 6.14413 9.09375C5.69345 9.09375 5.32812 9.45908 5.32812 9.90975C5.32812 10.3604 5.69345 10.7258 6.14413 10.7258Z" fill="#1A1A1A"/>
<path d="M15.0271 9.55429C15.3504 9.66815 15.4791 10.3311 15.8057 10.1579C16.4242 9.82986 16.6591 9.06378 16.3302 8.44684C16.0013 7.82989 15.2332 7.5957 14.6146 7.92373C13.9961 8.25177 13.7612 9.0178 14.0901 9.63474C14.2454 9.92596 14.7381 9.45249 15.0271 9.55429Z" fill="#1A1A1A"/>
<path d="M9.05042 9.55429C8.72709 9.66815 8.59845 10.3311 8.27186 10.1579C7.65329 9.82986 7.41847 9.06378 7.74737 8.44684C8.07626 7.82989 8.84431 7.5957 9.46289 7.92373C10.0815 8.25177 10.3163 9.0178 9.98738 9.63474C9.83215 9.92596 9.33943 9.45249 9.05042 9.55429Z" fill="#1A1A1A"/>
</svg>
