<svg width="16" height="16" viewBox="0 0 16 16" fill="none" xmlns="http://www.w3.org/2000/svg">
<g clip-path="url(#clip0_553_33984)">
<path d="M14.0658 10.1486V12.4543C14.0658 13.4535 11.6571 14.76 8.68572 14.76C5.71439 14.76 3.30566 13.4535 3.30566 12.4543V10.5328" stroke="#348AEF" stroke-width="0.75" stroke-linecap="round" stroke-linejoin="round"/>
<path d="M3.53174 10.7319C4.19656 11.6143 6.25251 12.442 8.68583 12.442C11.6572 12.442 14.0659 11.2077 14.0659 10.147C14.0659 9.55139 13.3073 8.89887 12.1168 8.4408" stroke="#348AEF" stroke-width="0.75" stroke-linecap="round" stroke-linejoin="round"/>
<path d="M11.7601 6.30573V8.61146C11.7601 9.61062 9.35139 10.9172 6.38006 10.9172C3.40873 10.9172 1 9.61062 1 8.61146V6.30573" stroke="#348AEF" stroke-width="0.75" stroke-linecap="round" stroke-linejoin="round"/>
<path fill-rule="evenodd" clip-rule="evenodd" d="M6.38006 8.59918C9.35139 8.59918 11.7601 7.36484 11.7601 6.3042C11.7601 5.24356 9.35139 4 6.38006 4C3.40873 4 1 5.24279 1 6.3042C1 7.36484 3.40873 8.59918 6.38006 8.59918Z" stroke="#348AEF" stroke-width="0.75" stroke-linecap="round" stroke-linejoin="round"/>
<path d="M12.1429 4L11 2.5M11 2.5L12.1429 1M11 2.5H15" stroke="#348AEF" stroke-width="0.5" stroke-linecap="round" stroke-linejoin="round"/>
</g>
<defs>
<clipPath id="clip0_553_33984">
<rect width="16" height="16" fill="white"/>
</clipPath>
</defs>
</svg>
