<svg width="20" height="20" viewBox="0 0 20 20" fill="none" xmlns="http://www.w3.org/2000/svg">
<g clip-path="url(#clip0_3619_121003)">
<path d="M7.13353 3.07812C6.2236 3.45478 5.39675 4.00695 4.7002 4.70312" stroke="#818181" stroke-width="1.25" stroke-linecap="round" stroke-linejoin="round"/>
<path d="M3.075 7.13281C2.69713 8.04139 2.50175 9.01545 2.5 9.99948" stroke="#818181" stroke-width="1.25" stroke-linecap="round" stroke-linejoin="round"/>
<path d="M3.0752 12.8672C3.45185 13.7771 4.00402 14.604 4.7002 15.3005" stroke="#818181" stroke-width="1.25" stroke-linecap="round" stroke-linejoin="round"/>
<path d="M7.1333 16.9219C8.04188 17.2997 9.01594 17.4951 9.99997 17.4969" stroke="#818181" stroke-width="1.25" stroke-linecap="round" stroke-linejoin="round"/>
<path d="M12.8667 16.9258C13.7766 16.5491 14.6035 15.997 15.3 15.3008" stroke="#818181" stroke-width="1.25" stroke-linecap="round" stroke-linejoin="round"/>
<path d="M16.9248 12.8667C17.3027 11.9581 17.4981 10.984 17.4998 10" stroke="#818181" stroke-width="1.25" stroke-linecap="round" stroke-linejoin="round"/>
<path d="M16.9248 7.13255C16.5481 6.22262 15.996 5.39578 15.2998 4.69922" stroke="#818181" stroke-width="1.25" stroke-linecap="round" stroke-linejoin="round"/>
<path d="M12.8667 3.075C11.9581 2.69713 10.984 2.50175 10 2.5" stroke="#818181" stroke-width="1.25" stroke-linecap="round" stroke-linejoin="round"/>
<path d="M7.5 9.9987L9.16667 11.6654L12.5 8.33203" stroke="#818181" stroke-width="1.25" stroke-linecap="round" stroke-linejoin="round"/>
</g>
<defs>
<clipPath id="clip0_3619_121003">
<rect width="20" height="20" fill="white"/>
</clipPath>
</defs>
</svg>
