<svg width="254" height="172" viewBox="0 0 254 172" fill="none" xmlns="http://www.w3.org/2000/svg">
    <g filter="url(#filter0_di_4493_437242)">
    <rect x="8.80078" y="8.39844" width="220.4" height="139.2" rx="12" fill="white"/>
    <rect x="9.30078" y="8.89844" width="219.4" height="138.2" rx="11.5" stroke="#E4E4E4"/>
    </g>
    <rect width="132" height="66" transform="translate(35 37)" fill="white"/>
    <path d="M166 55.6866C144.493 57.4691 134.198 32.2571 112.911 37.1717C95.3568 41.2244 96.8101 67.5908 79.1263 70.0863C59.9455 72.793 53.8076 96.7651 35 103H166V55.6866Z" fill="url(#paint0_linear_4493_437242)"/>
    <path d="M35 102.999C53.835 96.7645 59.9818 72.7924 79.1905 70.0856C96.9 67.5902 94.754 41.2244 112.333 37.1717C133.651 32.2571 143.961 57.4691 165.5 55.6866" stroke="#7857FC" stroke-width="1.5" stroke-linecap="round" stroke-linejoin="round"/>
    <path d="M229.201 130.198V25.7984C229.201 16.1887 221.411 8.39844 211.801 8.39844V147.598C221.411 147.598 229.201 139.808 229.201 130.198Z" fill="white"/>
    <path opacity="0.16" d="M229.201 130.198V25.7984C228 10.998 221.411 8.39844 211.801 8.39844V147.598C221.411 147.598 229.201 139.808 229.201 130.198Z" fill="#7857FC"/>
    <g filter="url(#filter1_di_4493_437242)">
    <rect x="214.701" y="37.3984" width="11.6" height="34.8" rx="5.8" fill="#FFAB00"/>
    </g>
    <defs>
    <filter id="filter0_di_4493_437242" x="0.800781" y="0.398438" width="252.4" height="171.199" filterUnits="userSpaceOnUse" color-interpolation-filters="sRGB">
    <feFlood flood-opacity="0" result="BackgroundImageFix"/>
    <feColorMatrix in="SourceAlpha" type="matrix" values="0 0 0 0 0 0 0 0 0 0 0 0 0 0 0 0 0 0 127 0" result="hardAlpha"/>
    <feOffset dx="8" dy="8"/>
    <feGaussianBlur stdDeviation="8"/>
    <feColorMatrix type="matrix" values="0 0 0 0 0.770709 0 0 0 0 0.792653 0 0 0 0 0.818587 0 0 0 0.16 0"/>
    <feBlend mode="normal" in2="BackgroundImageFix" result="effect1_dropShadow_4493_437242"/>
    <feBlend mode="normal" in="SourceGraphic" in2="effect1_dropShadow_4493_437242" result="shape"/>
    <feColorMatrix in="SourceAlpha" type="matrix" values="0 0 0 0 0 0 0 0 0 0 0 0 0 0 0 0 0 0 127 0" result="hardAlpha"/>
    <feOffset dx="-2" dy="-2"/>
    <feGaussianBlur stdDeviation="2"/>
    <feComposite in2="hardAlpha" operator="arithmetic" k2="-1" k3="1"/>
    <feColorMatrix type="matrix" values="0 0 0 0 0.717499 0 0 0 0 0.740813 0 0 0 0 0.768367 0 0 0 0.48 0"/>
    <feBlend mode="normal" in2="shape" result="effect2_innerShadow_4493_437242"/>
    </filter>
    <filter id="filter1_di_4493_437242" x="210.701" y="33.3984" width="27.5996" height="50.8008" filterUnits="userSpaceOnUse" color-interpolation-filters="sRGB">
    <feFlood flood-opacity="0" result="BackgroundImageFix"/>
    <feColorMatrix in="SourceAlpha" type="matrix" values="0 0 0 0 0 0 0 0 0 0 0 0 0 0 0 0 0 0 127 0" result="hardAlpha"/>
    <feOffset dx="4" dy="4"/>
    <feGaussianBlur stdDeviation="4"/>
    <feColorMatrix type="matrix" values="0 0 0 0 0.717647 0 0 0 0 0.431373 0 0 0 0 0 0 0 0 0.16 0"/>
    <feBlend mode="normal" in2="BackgroundImageFix" result="effect1_dropShadow_4493_437242"/>
    <feBlend mode="normal" in="SourceGraphic" in2="effect1_dropShadow_4493_437242" result="shape"/>
    <feColorMatrix in="SourceAlpha" type="matrix" values="0 0 0 0 0 0 0 0 0 0 0 0 0 0 0 0 0 0 127 0" result="hardAlpha"/>
    <feOffset dx="-1" dy="-1"/>
    <feGaussianBlur stdDeviation="1"/>
    <feComposite in2="hardAlpha" operator="arithmetic" k2="-1" k3="1"/>
    <feColorMatrix type="matrix" values="0 0 0 0 0.717647 0 0 0 0 0.431373 0 0 0 0 0 0 0 0 0.48 0"/>
    <feBlend mode="normal" in2="shape" result="effect2_innerShadow_4493_437242"/>
    </filter>
    <linearGradient id="paint0_linear_4493_437242" x1="100.5" y1="36.5352" x2="100.5" y2="103" gradientUnits="userSpaceOnUse">
    <stop stop-color="#E4DDFE"/>
    <stop offset="1" stop-color="#E4DDFE" stop-opacity="0"/>
    </linearGradient>
    </defs>
    </svg>
    