<svg width="20" height="20" viewBox="0 0 20 20" fill="none" xmlns="http://www.w3.org/2000/svg">
<g clip-path="url(#clip0_3619_120971)">
<path d="M8.33327 17.3153C7.60794 17.1508 6.91133 16.8786 6.2666 16.5078" stroke="#818181" stroke-width="1.25" stroke-linecap="round" stroke-linejoin="round"/>
<path d="M11.667 2.68359C13.3238 3.06199 14.803 3.99167 15.8625 5.32043C16.922 6.64919 17.499 8.2983 17.499 9.99776C17.499 11.6972 16.922 13.3463 15.8625 14.6751C14.803 16.0039 13.3238 16.9335 11.667 17.3119" stroke="#818181" stroke-width="1.25" stroke-linecap="round" stroke-linejoin="round"/>
<path d="M3.81596 14.2459C3.36138 13.5855 3.01612 12.8562 2.79346 12.0859" stroke="#818181" stroke-width="1.25" stroke-linecap="round" stroke-linejoin="round"/>
<path d="M2.60352 8.74896C2.73685 7.95729 2.99352 7.20729 3.35352 6.51979L3.49435 6.26562" stroke="#818181" stroke-width="1.25" stroke-linecap="round" stroke-linejoin="round"/>
<path d="M5.75586 3.81359C6.53557 3.27684 7.41029 2.89336 8.33336 2.68359" stroke="#818181" stroke-width="1.25" stroke-linecap="round" stroke-linejoin="round"/>
</g>
<defs>
<clipPath id="clip0_3619_120971">
<rect width="20" height="20" fill="white"/>
</clipPath>
</defs>
</svg>
